<?xml version="1.0" encoding="utf-8"?>
<!-- Generator: Adobe Illustrator 18.1.1, SVG Export Plug-In . SVG Version: 6.00 Build 0)  -->
<!DOCTYPE svg PUBLIC "-//W3C//DTD SVG 1.1//EN" "http://www.w3.org/Graphics/SVG/1.1/DTD/svg11.dtd">
<svg version="1.1" id="Layer_1" xmlns="http://www.w3.org/2000/svg" xmlns:xlink="http://www.w3.org/1999/xlink" x="0px" y="0px"
	 viewBox="0 0 32 32" enable-background="new 0 0 32 32" xml:space="preserve">
<circle fill="#50A09A" cx="22" cy="4" r="4"/>
<circle fill="#356AB7" cx="10" cy="8" r="4"/>
<path fill="#356AB7" d="M13.6,13.6c-2.2,1-2,3.7-3.6,3.7s-1.5-2.6-3.6-3.7C4.3,12.5,1,16.1,1,18.8c0,3.7,4,6.6,9,6.6s9-3,9-6.6
	C19,16.1,16,12.5,13.6,13.6z"/>
<g>
	<path fill="#50A09A" d="M23.9,13.9c0.7-0.7,1.8-0.7,2.5-0.1l3.6,3.6c0.5-0.8,0.8-1.7,0.8-2.7c0-2.7-3-6.2-5.4-5.1
		c-2.2,1-2,3.7-3.6,3.7s-1.5-2.6-3.6-3.7c-1.4-0.8-3.3,0.6-4.5,2.3c0.1-0.1,0.3-0.2,0.4-0.3c2.6-1.3,5.7,2.2,6.5,5.5L23.9,13.9z"/>
</g>
<path fill="#EAB871" d="M31.7,21.1l-5.3-5.3c-0.5-0.5-1.3-0.5-1.8,0.1l-3.8,3.8c-0.5,0.5-0.5,1.3-0.1,1.8l1.4,1.4L15,30v2h2
	c-0.1,0.1,5.1-5.1,7.1-7.1l1.9,1.9c0.5,0.5,1.3,0.5,1.8-0.1l3.8-3.8C32.1,22.4,32.1,21.5,31.7,21.1z M26.2,19.8
	c-0.5,0.5-1.3,0.5-1.8,0.1c-0.5-0.5-0.5-1.3,0.1-1.8s1.3-0.5,1.8-0.1S26.7,19.2,26.2,19.8z"/>
</svg>
