<?xml version="1.0" encoding="utf-8"?>
<!-- Generator: Adobe Illustrator 23.0.1, SVG Export Plug-In . SVG Version: 6.00 Build 0)  -->
<svg version="1.1" id="Layer_1" xmlns="http://www.w3.org/2000/svg" xmlns:xlink="http://www.w3.org/1999/xlink" x="0px" y="0px"
	 viewBox="0 0 32 32" style="enable-background:new 0 0 32 32;" xml:space="preserve">
<style type="text/css">
	.Black{fill:#737374;}
	.Red{fill:#D02027;}
	.Blue{fill:#3575BB;}
	.Yellow{fill:#FCB01B;}
	.White{fill:#FFFFFF;}
	.Green{fill:#159C49;}
	.st0{opacity:0.75;}
	.st1{opacity:0.5;}
</style>
<path class="Blue" d="M10.2,10.6c0,1-0.4,1.1-1,1.1H7.9V9.4h1.3C9.8,9.4,10.2,9.5,10.2,10.6z M30,6v12H2V6H30z M12.2,14.7h-0.9
	l-1.3-1.6v0l0.1,0c1.2-0.2,1.8-0.7,1.8-2.4c0-2.3-1.1-2.6-2.7-2.6H5.3v1.3h0.9v5.4H5.3V16h3.5v-1.3H7.9v-1.6h0.4l1.9,2.9h1.9V14.7z
	 M19.8,8h-7.1v2.6h1.5V9.4h1.1v5.3h-0.9V16H18v-1.3h-0.9V9.4h1.2v1.2h1.5V8z M26.7,8h-6.2v1.3h0.9v5.4h-0.9V16h3.6v-1.3h-1v-2h2.6
	v-1.4h-2.6V9.4h2.1v0.8h1.5V8z"/>
<path class="Black" d="M4,6V3c0-0.5,0.5-1,1-1h22c0.5,0,1,0.5,1,1v3h-2V4H6v2H4z M26,18v10H6V18H4v11c0,0.5,0.5,1,1,1h22
	c0.5,0,1-0.5,1-1V18H26z"/>
</svg>
