<?xml version="1.0" encoding="utf-8"?>
<!-- Generator: Adobe Illustrator 23.0.1, SVG Export Plug-In . SVG Version: 6.00 Build 0)  -->
<svg version="1.1" id="Layer_1" xmlns="http://www.w3.org/2000/svg" xmlns:xlink="http://www.w3.org/1999/xlink" x="0px" y="0px"
	 viewBox="0 0 32 32" style="enable-background:new 0 0 32 32;" xml:space="preserve">
<style type="text/css">
	.Black{fill:#737374;}
	.Red{fill:#D02027;}
	.Blue{fill:#3575BB;}
	.Yellow{fill:#FCB01B;}
	.White{fill:#FFFFFF;}
	.Green{fill:#159C49;}
	.st0{opacity:0.75;}
	.st1{opacity:0.5;}
</style>
<path class="Black" d="M2,6v12h28V6H2z M11.8,10.6h-1.5V9.4H9.1v5.3H10V16H6.5v-1.3h0.9V9.4H6.2v1.2H4.7V8h7.1V10.6z M19.8,16h-3.5
	v-1.3h0.8L16,13.2l-1.2,1.5h0.8V16h-3.4v-1.3h0.7l2.2-2.8l-2-2.6h-0.7V8h3.4v1.3H15l1,1.5l1-1.5h-0.7V8h3.4v1.3h-0.7l-2,2.6l2.2,2.8
	h0.7V16z M27.3,10.6h-1.5V9.4h-1.2v5.3h0.9V16H22v-1.3h0.9V9.4h-1.1v1.2h-1.5V8h7.1V10.6z"/>
<path class="Black" d="M4,6V3c0-0.5,0.5-1,1-1h22c0.5,0,1,0.5,1,1v3h-2V4H6v2H4z M26,18v10H6V18H4v11c0,0.5,0.5,1,1,1h22
	c0.5,0,1-0.5,1-1V18H26z"/>
</svg>
