<?xml version="1.0" encoding="utf-8"?>
<!-- Generator: Adobe Illustrator 23.0.1, SVG Export Plug-In . SVG Version: 6.00 Build 0)  -->
<svg version="1.1" id="Layer_1" xmlns="http://www.w3.org/2000/svg" xmlns:xlink="http://www.w3.org/1999/xlink" x="0px" y="0px"
	 viewBox="0 0 32 32" style="enable-background:new 0 0 32 32;" xml:space="preserve">
<style type="text/css">
	.Black{fill:#737374;}
	.Red{fill:#D02027;}
	.Blue{fill:#3575BB;}
	.Yellow{fill:#FCB01B;}
	.White{fill:#FFFFFF;}
	.Green{fill:#159C49;}
	.st0{opacity:0.75;}
	.st1{opacity:0.5;}
</style>
<path class="Blue" d="M7.1,11.2v1.5c0,1.3-0.5,1.8-1.7,1.8h-1V9.4h1C6.6,9.4,7.1,9.8,7.1,11.2z M12.9,9.3c-1,0-1.6,0.2-1.6,1.8v1.8
	c0,1.5,0.6,1.8,1.6,1.8c1.2,0,1.6-0.4,1.6-1.8v-1.8C14.5,9.7,14.1,9.3,12.9,9.3z M32,6v12H0V6H32z M8.7,11.2C8.7,8.9,7.7,8,5.4,8
	H2.8H2v1.3h0.8v5.4H2V16h0.8h2.6c2.1,0,3.3-0.8,3.3-3.2V11.2z M16.1,11.1c0-0.9,0-2.5-1.8-3c-0.5-0.1-1-0.2-1.4-0.2
	c-0.4,0-0.9,0-1.4,0.2c-1.8,0.5-1.8,2.1-1.8,3v1.8c0,0.9,0,2.5,1.8,3c0.5,0.1,1,0.2,1.4,0.2c0.4,0,0.9,0,1.4-0.2
	c1.8-0.5,1.8-2.1,1.8-3V11.1z M22.5,14.5c-0.6,0.1-1.5,0.2-2.1,0.2c-1.1,0-1.7-0.4-1.7-1.7v-1.8c0-1.4,0.5-1.9,1.6-1.9
	c0.2,0,0.5,0,0.7,0v1h1.4V8.5V8.1c-0.6-0.1-1.3-0.2-2.1-0.2c-0.4,0-0.8,0-1.2,0.1c-1.9,0.5-2,2.1-2,3V13c0,0.9,0.1,2.5,2,3
	c0.4,0.1,0.8,0.1,1.2,0.1c0.8,0,1.5-0.1,2.1-0.2V14.5z M30,14.7h-0.6l-2-2.8l1.8-2.6h0.6V8h-3.1v1.3h0.7l-0.9,1.5l-0.9-1.5h0.7V8
	h-3.1v1.3h0.6l1.8,2.6l-2,2.8h-0.6V16h3.2v-1.3h-0.7l1.1-1.5l1.1,1.5h-0.7V16H30V14.7z"/>
<path class="Black" d="M4,6V3c0-0.5,0.5-1,1-1h22c0.5,0,1,0.5,1,1v3h-2V4H6v2H4z M26,18v10H6V18H4v11c0,0.5,0.5,1,1,1h22
	c0.5,0,1-0.5,1-1V18H26z"/>
</svg>
