<?xml version="1.0" encoding="utf-8"?>
<!-- Generator: Adobe Illustrator 23.0.1, SVG Export Plug-In . SVG Version: 6.00 Build 0)  -->
<svg version="1.1" id="Layer_1" xmlns="http://www.w3.org/2000/svg" xmlns:xlink="http://www.w3.org/1999/xlink" x="0px" y="0px"
	 viewBox="0 0 32 32" style="enable-background:new 0 0 32 32;" xml:space="preserve">
<style type="text/css">
	.Black{fill:#727272;}
	.Blue{fill:#1177D7;}
	.Green{fill:#039C23;}
	.Yellow{fill:#FFB115;}
	.Red{fill:#D11C1C;}
	.White{fill:#FFFFFF;}
	.st0{opacity:0.5;}
	.st1{opacity:0.75;}
</style>
<path class="Black" d="M23.5,30H7c-0.6,0-1-0.4-1-1V3c0-0.6,0.4-1,1-1h14l7,7v16.5l-2-2V10h-5c-0.6,0-1-0.4-1-1V4H8v24h13.5L23.5,30
	z M27.6,27.9L21.7,22H20v1.7l5.9,5.9c0.4,0.5,1.2,0.5,1.7,0C28.1,29.2,28.1,28.4,27.6,27.9z"/>
<polygon class="Yellow" points="16,15 18,13 18,16 21,16 19,18 21,20 18,20 18,23 16,21 14,23 14,20 11,20 13,18 11,16 14,16 14,13 
	"/>
</svg>
