<?xml version="1.0" encoding="UTF-8"?>
<svg xmlns="http://www.w3.org/2000/svg" xmlns:xlink="http://www.w3.org/1999/xlink" x="0px" y="0px" viewBox="0 0 16 16">
  <style>
		.Black{fill:#727272;}
		.Yellow{fill:#FFB115;}
		.Blue{fill:#1177D7;}
		.Green{fill:#039C23;}
		.Red{fill:#D11C1C;}
		.White{fill:#FFFFFF;}
  </style>
  <title>Checked</title>
	<path class="Green" d="M15,7.3C15.1,6.1,14.2,5,12.9,5l0,0h-2.5h-0.3c0,0,0.5-3,0-3.5s-1.8-0.7-2,0c-0.7,2.6-2,4.1-2,4.1	C5.3,6.4,4.9,7.7,4.9,8.9V11c0,2.2,0.7,4,2.9,4h2.7h1.9c1.1,0,1.9-0.8,2.1-1.8L15,7.3z"/>
	<path class="Green" d="M2,15H1V7h1c0.6,0,1,0.4,1,1v6C3,14.6,2.6,15,2,15z"/>
</svg>
