<?xml version="1.0" encoding="UTF-8"?>
<svg xmlns="http://www.w3.org/2000/svg" viewBox="0 0 20 20">
    <style>
        .Red {
            fill: #D11C1C;
        }
        .Yellow {
            fill: #FFB115;
        }
        .Green {
            fill: #039C23;
        }
        .Blue {
            fill: #1177D7;
        }
        .Black {
            fill: #727272;
        }
        .White {
            fill: #FFFFFF;
        }
    </style>
    <path
        d="M19.64,12.47h0L15.57,3.33h0a2.07,2.07,0,0,0-2-1.33,2,2,0,0,0-2.14,2V6H8.57V4A2,2,0,0,0,6.43,2a2.17,2.17,0,0,0-2,1.33h0L.36,12.47h0A3.62,3.62,0,0,0,0,14a4.16,4.16,0,0,0,4.29,4,4.16,4.16,0,0,0,4.28-4V11.33h2.86V14a4.16,4.16,0,0,0,4.28,4A4.16,4.16,0,0,0,20,14,3.62,3.62,0,0,0,19.64,12.47ZM4.29,16.67A2.77,2.77,0,0,1,1.43,14a2.77,2.77,0,0,1,2.86-2.67A2.77,2.77,0,0,1,7.14,14,2.77,2.77,0,0,1,4.29,16.67Zm11.42,0A2.77,2.77,0,0,1,12.86,14a2.77,2.77,0,0,1,2.85-2.67A2.77,2.77,0,0,1,18.57,14,2.77,2.77,0,0,1,15.71,16.67Z"
        class="Black"/>
    <path
        d="M19.64,12.47h0L15.57,3.33h0a2.07,2.07,0,0,0-2-1.33,2,2,0,0,0-2.14,2V6H8.57V4A2,2,0,0,0,6.43,2a2.17,2.17,0,0,0-2,1.33h0L.36,12.47h0A3.62,3.62,0,0,0,0,14a4.16,4.16,0,0,0,4.29,4,4.16,4.16,0,0,0,4.28-4V11.33h2.86V14a4.16,4.16,0,0,0,4.28,4A4.16,4.16,0,0,0,20,14,3.62,3.62,0,0,0,19.64,12.47ZM4.29,16.67A2.77,2.77,0,0,1,1.43,14a2.77,2.77,0,0,1,2.86-2.67A2.77,2.77,0,0,1,7.14,14,2.77,2.77,0,0,1,4.29,16.67Zm11.42,0A2.77,2.77,0,0,1,12.86,14a2.77,2.77,0,0,1,2.85-2.67A2.77,2.77,0,0,1,18.57,14,2.77,2.77,0,0,1,15.71,16.67Z"
        class="Black"/>
</svg>
