<?xml version="1.0" encoding="utf-8"?>
<!-- Generator: Adobe Illustrator 21.1.0, SVG Export Plug-In . SVG Version: 6.00 Build 0)  -->
<svg version="1.1" id="Layer_1" xmlns="http://www.w3.org/2000/svg" xmlns:xlink="http://www.w3.org/1999/xlink" x="0px" y="0px"
	 viewBox="0 0 32 32" style="enable-background:new 0 0 32 32;" xml:space="preserve">
<style type="text/css">
	.Red_x0020_2{fill:#D11C1C;}
	.Yellow_x0020_2{fill:#FFB115;}
	.st0{opacity:0.15;}
	.st1{opacity:0.3;}
</style>
<path class="Yellow_x0020_2" d="M24.4,6.9c-0.2-0.4-0.7-0.6-1.2-0.4L2,10v6c1.1,0,2,0.9,2,2c0,1.1-0.9,2-2,2v1.2
	c0,0.5,0.4,0.9,0.8,1l26,3.7c0.6,0.1,1.2-0.4,1.2-1V14L24.4,6.9z"/>
<g class="st0">
	<path class="Red_x0020_2" d="M2,10v6c1.1,0,2,0.9,2,2c0,1.1-0.9,2-2,2v1.2c0,0.5,0.4,0.9,0.8,1l26,3.7c0.6,0.1,1.2-0.4,1.2-1V14
		L2,10z"/>
</g>
<g class="st1">
	<circle class="Red_x0020_2" cx="10" cy="14" r="2"/>
	<circle class="Red_x0020_2" cx="24" cy="22" r="2"/>
	<circle class="Red_x0020_2" cx="20" cy="16" r="2"/>
	<circle class="Red_x0020_2" cx="14" cy="20" r="2"/>
</g>
</svg>
