<?xml version="1.0" encoding="utf-8"?>
<!-- Generator: Adobe Illustrator 21.1.0, SVG Export Plug-In . SVG Version: 6.00 Build 0)  -->
<svg version="1.1" id="Layer_1" xmlns="http://www.w3.org/2000/svg" xmlns:xlink="http://www.w3.org/1999/xlink" x="0px" y="0px"
	 viewBox="0 0 32 32" style="enable-background:new 0 0 32 32;" xml:space="preserve">
<style type="text/css">
	.Red{fill:#D11C1C;}
	.Black{fill:#727272;}
	.Green{fill:#039C23;}
	.White{fill:#FFFFFF;}
	.st0{opacity:0.4;}
	.st1{opacity:0.7;}
</style>
<path class="Black" d="M29,28H3c-0.6,0-1-0.4-1-1v0c0-0.6,0.4-1,1-1h26c0.6,0,1,0.4,1,1v0C30,27.6,29.6,28,29,28z"/>
<path class="Red" d="M24,18c-1.4,0-2.2-0.8-2.7-1.3S20.6,16,20,16s-0.8,0.2-1.3,0.7C18.2,17.3,17.4,18,16,18s-2.2-0.8-2.7-1.3
	S12.6,16,12,16s-0.8,0.2-1.3,0.7C10.2,17.3,9.4,18,8,18s-2.2-0.7-2.7-1.3C4.8,16.2,4.6,16,4,16v8h24v-8c-0.6,0-0.8,0.2-1.3,0.7
	C26.2,17.3,25.4,18,24,18z"/>
<path class="Red" d="M27,8h-7c0,2.2-1.8,4-4,4s-4-1.8-4-4H5C4.4,8,4,8.4,4,9v5c1.4,0,2.2,0.7,2.7,1.3C7.2,15.8,7.4,16,8,16
	s0.8-0.2,1.3-0.7C9.8,14.7,10.6,14,12,14s2.2,0.7,2.7,1.3c0.5,0.5,0.7,0.7,1.3,0.7s0.8-0.2,1.3-0.7c0.5-0.6,1.3-1.3,2.7-1.3
	s2.2,0.7,2.7,1.3c0.5,0.5,0.7,0.7,1.3,0.7s0.8-0.2,1.3-0.7c0.5-0.6,1.3-1.3,2.7-1.3V9C28,8.4,27.6,8,27,8z"/>
<polygon class="Black" points="17,8 16,8 14,4 15,4 "/>
<circle class="Red" cx="16" cy="8" r="2"/>
<g class="st0">
	<path class="Green" d="M24,18c-1.4,0-2.2-0.8-2.7-1.3S20.6,16,20,16s-0.8,0.2-1.3,0.7C18.2,17.3,17.4,18,16,18s-2.2-0.8-2.7-1.3
		S12.6,16,12,16s-0.8,0.2-1.3,0.7C10.2,17.3,9.4,18,8,18s-2.2-0.7-2.7-1.3C4.8,16.2,4.6,16,4,16v8h24v-8c-0.6,0-0.8,0.2-1.3,0.7
		C26.2,17.3,25.4,18,24,18z"/>
</g>
<g class="st1">
	<path class="White" d="M27,8h-7c0,2.2-1.8,4-4,4s-4-1.8-4-4H5C4.4,8,4,8.4,4,9v5c1.4,0,2.2,0.7,2.7,1.3C7.2,15.8,7.4,16,8,16
		s0.8-0.2,1.3-0.7C9.8,14.7,10.6,14,12,14s2.2,0.7,2.7,1.3c0.5,0.5,0.7,0.7,1.3,0.7s0.8-0.2,1.3-0.7c0.5-0.6,1.3-1.3,2.7-1.3
		s2.2,0.7,2.7,1.3c0.5,0.5,0.7,0.7,1.3,0.7s0.8-0.2,1.3-0.7c0.5-0.6,1.3-1.3,2.7-1.3V9C28,8.4,27.6,8,27,8z"/>
</g>
</svg>
