<?xml version="1.0" encoding="utf-8"?>
<!-- Generator: Adobe Illustrator 23.0.1, SVG Export Plug-In . SVG Version: 6.00 Build 0)  -->
<svg version="1.1" id="Layer_1" xmlns="http://www.w3.org/2000/svg" xmlns:xlink="http://www.w3.org/1999/xlink" x="0px" y="0px"
	 viewBox="0 0 32 32" style="enable-background:new 0 0 32 32;" xml:space="preserve">
<style type="text/css">
	.Black{fill:#737374;}
	.Red{fill:#D02027;}
	.Blue{fill:#3575BB;}
	.Yellow{fill:#FCB01B;}
	.White{fill:#FFFFFF;}
	.Green{fill:#159C49;}
	.st0{opacity:0.75;}
	.st1{opacity:0.5;}
</style>
<path class="Yellow" d="M2,6v12h28V6H2z M13.2,16h-2.9v-1.3H11l-0.2-4.2h0l-1.6,4.6H8l-1.5-4.2H6.5l-0.2,3.8h0.7V16H4v-1.3h0.6
	L5,9.3H4.2V8H7l1.6,4.8L10.3,8H13v1.3h-0.8l0.4,5.4h0.6V16z M21.1,9.3h-0.8v5.4h0.8V16h-2.3H18v-1.3h0.8v-2.1h-2.5v2.1h0.8V16h-2.3
	h-0.8v-1.3h0.8V9.3h-0.8V8h0.8h1.5h0.8v1.3h-0.8v1.9h2.5V9.3H18V8h0.8h1.5h0.8V9.3z M28,10.6h-1.3V9.4h-1v5.3h0.8V16h-3.1v-1.3h0.8
	V9.4h-1v1.2h-1.3V8H28V10.6z"/>
<path class="Black" d="M4,6V3c0-0.5,0.5-1,1-1h22c0.5,0,1,0.5,1,1v3h-2V4H6v2H4z M26,18v10H6V18H4v11c0,0.5,0.5,1,1,1h22
	c0.5,0,1-0.5,1-1V18H26z"/>
</svg>
