<?xml version="1.0" encoding="utf-8"?>
<!-- Generator: Adobe Illustrator 23.0.1, SVG Export Plug-In . SVG Version: 6.00 Build 0)  -->
<svg version="1.1" id="Layer_1" xmlns="http://www.w3.org/2000/svg" xmlns:xlink="http://www.w3.org/1999/xlink" x="0px" y="0px"
	 viewBox="0 0 32 32" style="enable-background:new 0 0 32 32;" xml:space="preserve">
<style type="text/css">
	.Black{fill:#737374;}
	.Red{fill:#D02027;}
	.Blue{fill:#3575BB;}
	.Yellow{fill:#FCB01B;}
	.White{fill:#FFFFFF;}
	.Green{fill:#159C49;}
	.st0{opacity:0.75;}
	.st1{opacity:0.5;}
</style>
<path class="Green" d="M2,6v12h28V6H2z M13.3,16H9.9v-1.3h0.8l-1.2-1.5l-1.2,1.5h0.8V16H5.7v-1.3h0.7l2.2-2.8l-2-2.6H5.9V8h3.4v1.3
	H8.5l1,1.5l1-1.5H9.8V8h3.4v1.3h-0.7l-2,2.6l2.2,2.8h0.7V16z M19.7,16h-5.8v-1.3h0.9V9.3h-0.9V8h2.6h0.9v1.3h-0.9v5.3h1.7v-1.2h1.5
	V16z M23,16.1c-0.4,0-1.6-0.1-2.5-0.4v-2.1H22v1c0.5,0.1,0.8,0.1,1,0.1c0.9,0,1.4-0.2,1.4-0.8c0-0.5-0.2-0.7-0.6-0.9l-1.5-0.7
	c-1.1-0.6-1.7-1.1-1.7-2.3c0-1.8,1.1-2.2,3.1-2.2C24,7.9,25,8,25.8,8.2v2h-1.5V9.3c-0.3-0.1-0.6-0.1-0.7-0.1c-0.8,0-1.3,0.2-1.3,0.8
	c0,0.4,0.3,0.6,0.9,0.9l1.4,0.7c1,0.5,1.5,1.1,1.5,2.3C26.1,15.7,24.9,16.1,23,16.1z"/>
<path class="Black" d="M4,6V3c0-0.5,0.5-1,1-1h22c0.5,0,1,0.5,1,1v3h-2V4H6v2H4z M26,18v10H6V18H4v11c0,0.5,0.5,1,1,1h22
	c0.5,0,1-0.5,1-1V18H26z"/>
</svg>
