<?xml version="1.0" encoding="utf-8"?>
<!-- Generator: Adobe Illustrator 23.0.1, SVG Export Plug-In . SVG Version: 6.00 Build 0)  -->
<svg version="1.1" id="Layer_1" xmlns="http://www.w3.org/2000/svg" xmlns:xlink="http://www.w3.org/1999/xlink" x="0px" y="0px"
	 viewBox="0 0 32 32" style="enable-background:new 0 0 32 32;" xml:space="preserve">
<style type="text/css">
	.Black{fill:#737374;}
	.Red{fill:#D02027;}
	.Blue{fill:#3575BB;}
	.Yellow{fill:#FCB01B;}
	.White{fill:#FFFFFF;}
	.Green{fill:#159C49;}
	.st0{opacity:0.75;}
	.st1{opacity:0.5;}
</style>
<path class="Yellow" d="M0,6v12h32V6H0z M8.8,9.3H8v5.4h0.8V16H6.6H5.8v-1.3h0.8v-2.1H4.2v2.1h0.8V16H2.8H2v-1.3h0.8V9.3H2V8h0.8
	h1.4h0.8v1.3H4.2v1.9h2.4V9.3H5.8V8h0.8H8h0.8V9.3z M15.2,10.6H14V9.4h-1v5.3h0.8V16h-2.9v-1.3h0.8V9.4h-1v1.2H9.3V8h5.9V10.6z
	 M24.5,16h-2.7v-1.3h0.7l-0.2-4.2h0l-1.5,4.6h-1.1l-1.4-4.2h0l-0.2,3.8h0.7V16h-2.7v-1.3h0.6l0.4-5.4H16V8h2.6l1.5,4.8L21.7,8h2.5
	v1.3h-0.8l0.4,5.4h0.6V16z M30,16h-4.9v-1.3h0.8V9.3h-0.8V8h2.2h0.8v1.3h-0.8v5.3h1.4v-1.2H30V16z"/>
<path class="Black" d="M4,6V3c0-0.5,0.5-1,1-1h22c0.5,0,1,0.5,1,1v3h-2V4H6v2H4z M26,18v10H6V18H4v11c0,0.5,0.5,1,1,1h22
	c0.5,0,1-0.5,1-1V18H26z"/>
</svg>
