<?xml version="1.0" encoding="utf-8"?>
<!-- Generator: Adobe Illustrator 20.1.0, SVG Export Plug-In . SVG Version: 6.00 Build 0)  -->
<svg version="1.1" id="Слой_1" xmlns="http://www.w3.org/2000/svg" xmlns:xlink="http://www.w3.org/1999/xlink" x="0px" y="0px"
	 viewBox="0 0 32 32" style="enable-background:new 0 0 32 32;" xml:space="preserve">
<style type="text/css">
	.Black{fill:#727272;}
	.White{fill:#FFFFFF;}
</style>
<path class="Black" d="M26,2H8C6.9,2,6,2.9,6,4v22c0,1.1,0.9,2,2,2h18c1.1,0,2-0.9,2-2V4C28,2.9,27.1,2,26,2z M26,26H8V4h18V26z"/>
<rect x="4" y="6" class="Black" width="26" height="12"/>
<path class="White" d="M8.2,16V9.4H6V8h6v1.4H9.8V16H8.2z"/>
<path class="White" d="M14,16l2.2-4.2l-2-3.8h1.5l1.3,2.6L18.3,8h1.5l-2,3.9L20,16h-1.6L17,13.2L15.6,16H14z"/>
<path class="White" d="M24.2,16V9.4H22V8h6v1.4h-2.2V16H24.2z"/>
</svg>
