<?xml version="1.0" encoding="utf-8"?>
<!-- Generator: Adobe Illustrator 20.1.0, SVG Export Plug-In . SVG Version: 6.00 Build 0)  -->
<svg version="1.1" id="Слой_1" xmlns="http://www.w3.org/2000/svg" xmlns:xlink="http://www.w3.org/1999/xlink" x="0px" y="0px"
	 viewBox="0 0 32 32" style="enable-background:new 0 0 32 32;" xml:space="preserve">
<style type="text/css">
	.Black{fill:#727272;}
	.White{fill:#FFFFFF;}
	.Green{fill:#039C23;}
</style>
<path class="Black" d="M26,2H8C6.9,2,6,2.9,6,4v22c0,1.1,0.9,2,2,2h18c1.1,0,2-0.9,2-2V4C28,2.9,27.1,2,26,2z M26,26H8V4h18V26z"/>
<rect x="2" y="6" class="Green" width="30" height="12"/>
<path class="White" d="M4,16l2.2-4.2L4.2,8h1.5L7,10.6L8.3,8h1.5l-2,3.9L10,16H8.4L7,13.2L5.6,16H4z"/>
<path class="White" d="M12,16V8h1.1v6.6H16V16H12z"/>
<path class="White" d="M17,13.3l1.4-0.1c0.1,0.5,0.6,1.5,1.6,1.5c0.5,0,1.5-0.2,1.5-1s-1.3-1-1.9-1.1c-0.8-0.2-1.4-0.5-1.7-0.8
	c-0.5-0.4-0.7-0.9-0.7-1.6c0-0.4,0.1-0.8,0.3-1.1c0.2-0.3,0.5-0.6,0.9-0.8C18.8,8.1,19.4,8,20,8c0.9,0,1.6,0.2,2.1,0.6
	c0.5,0.4,0.7,1,0.7,1.7l-1.5,0.1C21.2,10,21,9.2,20,9.2c-0.4,0-0.8,0.1-1,0.3c-0.2,0.1-0.4,0.7,0,1c0.2,0.2,0.6,0.3,1.4,0.5
	s1.3,0.4,1.6,0.6c0.3,0.2,0.6,0.5,0.8,0.8c0.2,0.3,0.3,0.7,0.3,1.2c0,2.2-2.4,2.4-3,2.4C17.5,16,17.1,14.2,17,13.3z"/>
<path class="White" d="M24,16l2.2-4.2l-2-3.8h1.5l1.3,2.6L28.3,8h1.5l-2,3.9L30,16h-1.6L27,13.2L25.6,16H24z"/>
</svg>
