<?xml version="1.0" encoding="utf-8"?>
<!-- Generator: Adobe Illustrator 20.1.0, SVG Export Plug-In . SVG Version: 6.00 Build 0)  -->
<svg version="1.1" id="Слой_1" xmlns="http://www.w3.org/2000/svg" xmlns:xlink="http://www.w3.org/1999/xlink" x="0px" y="0px"
	 viewBox="0 0 32 32" style="enable-background:new 0 0 32 32;" xml:space="preserve">
<style type="text/css">
	.White{fill:#FFFFFF;}
	.Black{fill:#727272;}
	.Yellow{fill:#FFB115;}
</style>
<path class="Black" d="M26,2H8C6.9,2,6,2.9,6,4v22c0,1.1,0.9,2,2,2h18c1.1,0,2-0.9,2-2V4C28,2.9,27.1,2,26,2z M26,26H8V4h18V26z"/>
<rect x="4" y="6" class="Yellow" width="26" height="12"/>
<path class="White" d="M6,16V8h1.9L9,13.5L10.1,8H12v8h-1.2V9.7L9.6,16H8.4L7.2,9.7V16H6z"/>
<path class="White" d="M14,16V8h1.5v3.1h3V8H20v8h-1.5v-3.5h-3V16H14z"/>
<path class="White" d="M24.2,16V9.4H22V8h6v1.4h-2.2V16H24.2z"/>
</svg>
