<?xml version="1.0" encoding="utf-8"?>
<!-- Generator: Adobe Illustrator 22.1.0, SVG Export Plug-In . SVG Version: 6.00 Build 0)  -->
<!DOCTYPE svg PUBLIC "-//W3C//DTD SVG 1.1//EN" "http://www.w3.org/Graphics/SVG/1.1/DTD/svg11.dtd">
<svg version="1.1" id="Layer_1" xmlns="http://www.w3.org/2000/svg" xmlns:xlink="http://www.w3.org/1999/xlink" x="0px" y="0px"
	 viewBox="0 0 130 36" style="enable-background:new 0 0 130 36;" xml:space="preserve">
<style type="text/css">
	.Black{fill:#777777;}
	.Blue{fill:#26A4DD;}
</style>
<path class="Blue" d="M33.3,0H2.7C1.2,0,0,1.2,0,2.7v30.6C0,34.8,1.2,36,2.7,36h30.6c1.5,0,2.7-1.2,2.7-2.7V2.7
	C36,1.2,34.8,0,33.3,0z M12,28H8v-5h4V28z M17,28h-4V18h4V28z M22,28h-4V13h4V28z M27,28h-4V8h4V28z"/>
<path class="Black" d="M56.6,18c0,2.9-0.6,5.1-1.8,6.7c-1.2,1.5-2.9,2.3-5.1,2.3h-4.3V9.4h4.7c2,0,3.6,0.8,4.8,2.3
	C56,13.2,56.6,15.3,56.6,18z M53.2,18.1c0-3.9-1.1-5.9-3.3-5.9h-1.3v11.9h1.1c1.2,0,2.1-0.5,2.7-1.5C52.9,21.6,53.2,20.1,53.2,18.1z
	"/>
<path class="Black" d="M69.2,27h-3.4l-2.5-6.3L61,27h-3.4l4-9.2l-3.7-8.5h3.3l2.3,5.8l2-5.8h3.4L65.2,18L69.2,27z"/>
<path class="Black" d="M76.3,12c-0.9,0-1.7,0.6-2.2,1.7c-0.5,1.1-0.8,2.6-0.8,4.6c0,4.1,1.1,6.1,3.2,6.1c0.9,0,1.9-0.3,2.9-0.9v2.9
	c-0.9,0.6-2,0.9-3.3,0.9c-2,0-3.5-0.8-4.6-2.4c-1.1-1.6-1.6-3.8-1.6-6.7s0.5-5.1,1.6-6.7c1.1-1.6,2.6-2.4,4.6-2.4
	c0.6,0,1.3,0.1,1.9,0.3s1.2,0.5,1.9,0.9L78.8,13c-0.4-0.2-0.7-0.5-1.2-0.7C77.2,12.1,76.8,12,76.3,12z"/>
<path class="Black" d="M88.4,27v-8c0-2-0.5-3-1.5-3c-0.7,0-1.3,0.4-1.6,1.2c-0.3,0.8-0.4,1.9-0.4,3.3V27h-3.2V8.2h3.2v4.2
	c0,0.5,0,1.5-0.1,2.9h0.2c0.6-1.3,1.6-2,3-2c1.2,0,2.2,0.4,2.8,1.2c0.6,0.8,0.9,2.1,0.9,3.7V27H88.4z"/>
<path class="Black" d="M100.8,27l-0.6-1.8H100c-0.5,0.8-1,1.3-1.5,1.6s-1.1,0.4-1.9,0.4c-1,0-1.8-0.4-2.3-1.1
	c-0.6-0.7-0.8-1.8-0.8-3.1c0-1.4,0.4-2.5,1.2-3.2c0.8-0.7,1.9-1.1,3.5-1.1l1.8-0.1v-1c0-1.3-0.5-1.9-1.6-1.9c-0.8,0-1.7,0.3-2.8,0.9
	l-1.1-2.2c1.3-0.8,2.8-1.3,4.4-1.3c1.4,0,2.5,0.4,3.2,1.2s1.1,2,1.1,3.5v9H100.8z M98,24.7c0.6,0,1.1-0.3,1.4-0.8
	c0.3-0.5,0.5-1.2,0.5-2.1v-1.1l-1,0c-0.7,0-1.3,0.2-1.6,0.6c-0.3,0.4-0.5,0.9-0.5,1.7C96.8,24.2,97.2,24.7,98,24.7z"/>
<path class="Black" d="M111.4,13.3c0.4,0,0.8,0.1,1.2,0.2l-0.4,3.1c-0.2-0.1-0.5-0.1-0.9-0.1c-0.8,0-1.4,0.3-1.8,0.9
	c-0.4,0.6-0.6,1.5-0.6,2.7V27h-3.2V13.6h2.6l0.4,2.1h0.1c0.4-0.8,0.7-1.4,1.2-1.8C110.4,13.5,110.9,13.3,111.4,13.3z"/>
<path class="Black" d="M118.7,24.5c0.5,0,0.9-0.1,1.5-0.3v2.5c-0.5,0.4-1.3,0.5-2.4,0.5c-1.2,0-2-0.3-2.6-1
	c-0.6-0.7-0.8-1.7-0.8-3.1v-7h-1.3v-1.4l1.7-1.2l0.8-2.8h2v2.9h2.4v2.5h-2.4v7.1C117.6,24.1,118,24.5,118.7,24.5z"/>
<path class="Black" d="M129.2,23.1c0,1.3-0.4,2.3-1.2,3.1c-0.8,0.7-1.9,1.1-3.4,1.1c-1.3,0-2.4-0.3-3.3-0.8v-2.8
	c0.4,0.3,1,0.6,1.5,0.8c0.6,0.2,1.1,0.3,1.6,0.3c0.5,0,0.9-0.1,1.1-0.4c0.3-0.2,0.4-0.6,0.4-1c0-0.4-0.1-0.8-0.4-1.1
	c-0.3-0.3-0.8-0.7-1.5-1.1c-1-0.6-1.7-1.2-2.1-1.9c-0.4-0.7-0.6-1.4-0.6-2.3c0-1.1,0.4-2,1.2-2.7s1.9-1,3.2-1c1.2,0,2.3,0.3,3.4,0.9
	l-1,2.3c-0.9-0.5-1.6-0.7-2.3-0.7c-0.4,0-0.7,0.1-0.9,0.3c-0.2,0.2-0.3,0.5-0.3,0.8c0,0.4,0.1,0.7,0.4,1c0.3,0.3,0.7,0.6,1.4,1
	c0.8,0.5,1.4,0.9,1.8,1.3c0.3,0.4,0.6,0.8,0.8,1.2S129.2,22.5,129.2,23.1z"/>
</svg>
