<?xml version="1.0" encoding="utf-8"?>
<!-- Generator: Adobe Illustrator 21.1.0, SVG Export Plug-In . SVG Version: 6.00 Build 0)  -->
<svg version="1.1" id="Layer_1" xmlns="http://www.w3.org/2000/svg" xmlns:xlink="http://www.w3.org/1999/xlink" x="0px" y="0px"
	 viewBox="0 0 16 16" style="enable-background:new 0 0 16 16;" xml:space="preserve">
<style type="text/css">
	.Red{fill:#D11C1C;}
	.Black{fill:#727272;}
	.Blue{fill:#1177D7;}
	.Green{fill:#039C23;}
	.Yellow{fill:#FFB115;}
	.White{fill:#FFFFFF;}
	.st0{opacity:0.5;}
	.st1{opacity:0.75;}
</style>
<g id="PrivateAppointment">
	<path class="Black" d="M11,6h-1V5c0-1.7-1.3-3-3-3S4,3.3,4,5v1H3C2.5,6,2,6.5,2,7v6c0,0.5,0.5,1,1,1h8c0.5,0,1-0.5,1-1V7
		C12,6.5,11.5,6,11,6z M6,5c0-0.6,0.4-1,1-1c0.6,0,1,0.4,1,1v1H6V5z"/>
</g>
</svg>
