<?xml version="1.0" encoding="utf-8"?>
<!-- Generator: Adobe Illustrator 19.1.0, SVG Export Plug-In . SVG Version: 6.00 Build 0)  -->
<svg version="1.1" id="Layer_1" xmlns="http://www.w3.org/2000/svg" xmlns:xlink="http://www.w3.org/1999/xlink" x="0px" y="0px"
	 viewBox="-434 247 89.3 67" enable-background="new -434 247 89.3 67" xml:space="preserve">
<g>
	<g>
		<path fill="#842E49" d="M-395.4,249.5h12c11,0,20,9,20,20v8c0,11-14,21.5-25,21.5h-2c-11,0-25-10.5-25-21.5v-8
			C-415.4,258.5-406.4,249.5-395.4,249.5z"/>
		<path fill="#842E49" d="M-355.8,260.6L-355.8,260.6c2.5,0,4.5,2,4.5,4.5v18.1c0,2.5-2,4.5-4.5,4.5l0,0c-2.5,0-4.5-2-4.5-4.5v-18.1
			C-360.3,262.6-358.2,260.6-355.8,260.6z"/>
		<path fill="#842E49" d="M-422.9,260.6L-422.9,260.6c2.5,0,4.5,2,4.5,4.5v18.1c0,2.5-2,4.5-4.5,4.5l0,0c-2.5,0-4.5-2-4.5-4.5v-18.1
			C-427.5,262.6-425.4,260.6-422.9,260.6z"/>
		<path fill="#842E49" d="M-406.8,298c4.3,1.1,7.4,4,17.5,4c9.3,0,13.1-3,17.5-4c2.5-0.6,4.8,2.1,4.8,4.7l0,0c0,2.6-3.3,4.1-4.8,4.7
			c0,0-7.5,4-17.5,4c-9.5,0-17.5-4-17.5-4c-2.5-1.3-4.7-2.1-4.7-4.7l0,0C-411.6,300.1-409.4,297.4-406.8,298z"/>
	</g>
</g>
</svg>
