<?xml version="1.0" encoding="utf-8"?>
<!-- Generator: Adobe Illustrator 19.1.0, SVG Export Plug-In . SVG Version: 6.00 Build 0)  -->
<svg version="1.1" id="Layer_1" xmlns="http://www.w3.org/2000/svg" xmlns:xlink="http://www.w3.org/1999/xlink" x="0px" y="0px"
	 viewBox="-459 261.6 39.8 38.4" enable-background="new -459 261.6 39.8 38.4" xml:space="preserve">
<g>
	<circle fill="#3C84BF" cx="-438.1" cy="280.7" r="18.6"/>
	<circle fill="#914040" cx="-438.1" cy="280.8" r="14.7"/>
	<g>
		
			<ellipse transform="matrix(0.7071 -0.7071 0.7071 0.7071 -325.9419 -237.9136)" fill="#909A20" cx="-450.2" cy="274.5" rx="1.9" ry="4.5"/>
		<g>
			<ellipse fill="#909A20" cx="-446.2" cy="273.5" rx="1.9" ry="4.5"/>
			<ellipse fill="#909A20" cx="-446.8" cy="282.2" rx="1.3" ry="3.1"/>
			
				<ellipse transform="matrix(0.7071 0.7071 -0.7071 0.7071 67.0468 400.3683)" fill="#909A20" cx="-449.8" cy="281.1" rx="1.3" ry="3.1"/>
		</g>
		<circle fill="#E2701A" cx="-447.2" cy="277.5" r="3.8"/>
	</g>
	<g>
		
			<ellipse transform="matrix(0.7071 0.7071 -0.7071 0.7071 61.8838 383.3864)" fill="#909A20" cx="-431.8" cy="266.4" rx="1.9" ry="4.5"/>
		<g>
			<ellipse fill="#909A20" cx="-430.8" cy="270.5" rx="4.5" ry="1.9"/>
			<ellipse fill="#909A20" cx="-439.5" cy="269.9" rx="3.1" ry="1.3"/>
			
				<ellipse transform="matrix(-0.7071 0.7071 -0.7071 -0.7071 -559.7415 765.5572)" fill="#909A20" cx="-438.4" cy="266.9" rx="1.3" ry="3.1"/>
		</g>
		<circle fill="#E2701A" cx="-434.8" cy="269.4" r="3.8"/>
	</g>
	<g>
		
			<ellipse transform="matrix(-0.7071 -0.7071 0.7071 -0.7071 -957.6423 187.1473)" fill="#909A20" cx="-440.1" cy="291.9" rx="1.9" ry="4.5"/>
		<g>
			<ellipse fill="#909A20" cx="-441.1" cy="287.8" rx="4.5" ry="1.9"/>
			<ellipse fill="#909A20" cx="-432.4" cy="288.4" rx="3.1" ry="1.3"/>
			
				<ellipse transform="matrix(0.7071 -0.7071 0.7071 0.7071 -333.0619 -221.1788)" fill="#909A20" cx="-433.5" cy="291.5" rx="1.3" ry="3.1"/>
		</g>
		<circle fill="#E2701A" cx="-437.1" cy="288.9" r="3.8"/>
	</g>
	<g>
		
			<ellipse transform="matrix(-0.7071 0.7071 -0.7071 -0.7071 -519.935 780.9103)" fill="#909A20" cx="-421.7" cy="282.8" rx="1.9" ry="4.5"/>
		<g>
			<ellipse fill="#909A20" cx="-425.8" cy="283.8" rx="1.9" ry="4.5"/>
			<ellipse fill="#909A20" cx="-425.2" cy="275.1" rx="1.3" ry="3.1"/>
			
				<ellipse transform="matrix(-0.7071 -0.7071 0.7071 -0.7071 -916.0375 172.8518)" fill="#909A20" cx="-422.2" cy="276.1" rx="1.3" ry="3.1"/>
		</g>
		<circle fill="#E2701A" cx="-424.7" cy="279.8" r="3.8"/>
	</g>
	<g>
		<ellipse fill="#909A20" cx="-435.1" cy="283.2" rx="1.9" ry="4.5"/>
		<g>
			
				<ellipse transform="matrix(-0.7071 -0.7071 0.7071 -0.7071 -947.666 169.5229)" fill="#909A20" cx="-438.7" cy="281" rx="1.9" ry="4.5"/>
			
				<ellipse transform="matrix(-0.7071 -0.7071 0.7071 -0.7071 -932.3326 164.5266)" fill="#909A20" cx="-432.1" cy="275.4" rx="1.3" ry="3.1"/>
			<ellipse fill="#909A20" cx="-430.7" cy="278.2" rx="3.1" ry="1.3"/>
		</g>
		<circle fill="#E2701A" cx="-435.1" cy="279" r="3.8"/>
	</g>
</g>
</svg>
