<?xml version="1.0" encoding="utf-8"?>
<!-- Generator: Adobe Illustrator 19.1.0, SVG Export Plug-In . SVG Version: 6.00 Build 0)  -->
<svg version="1.1" id="Layer_1" xmlns="http://www.w3.org/2000/svg" xmlns:xlink="http://www.w3.org/1999/xlink" x="0px" y="0px"
	 viewBox="-459 261.6 39.8 38.4" enable-background="new -459 261.6 39.8 38.4" xml:space="preserve">
<g>
	<circle fill="#C1C1C1" cx="-438.1" cy="280.7" r="18.6"/>
	<circle fill="#914040" cx="-438.1" cy="280.6" r="14.7"/>
	<g>
		
			<ellipse transform="matrix(-0.7071 0.7071 -0.7071 -0.7071 -524.3781 790.9055)" fill="#909A20" cx="-426" cy="286.9" rx="1.9" ry="4.5"/>
		<g>
			<ellipse fill="#909A20" cx="-430.1" cy="287.9" rx="1.9" ry="4.5"/>
			<ellipse fill="#909A20" cx="-429.5" cy="279.2" rx="1.3" ry="3.1"/>
			
				<ellipse transform="matrix(-0.7071 -0.7071 0.7071 -0.7071 -926.2587 176.8095)" fill="#909A20" cx="-426.5" cy="280.2" rx="1.3" ry="3.1"/>
		</g>
		<circle fill="#D980E0" cx="-429" cy="283.9" r="3.8"/>
	</g>
	<g>
		
			<ellipse transform="matrix(-0.7071 -0.7071 0.7071 -0.7071 -967.2214 189.2273)" fill="#909A20" cx="-444.4" cy="294.9" rx="1.9" ry="4.5"/>
		<g>
			<ellipse fill="#909A20" cx="-445.4" cy="290.9" rx="4.5" ry="1.9"/>
			<ellipse fill="#909A20" cx="-436.7" cy="291.5" rx="3.1" ry="1.3"/>
			
				<ellipse transform="matrix(0.7071 -0.7071 0.7071 0.7071 -336.4428 -223.2921)" fill="#909A20" cx="-437.8" cy="294.5" rx="1.3" ry="3.1"/>
		</g>
		<circle fill="#D980E0" cx="-441.4" cy="292" r="3.8"/>
	</g>
	<g>
		
			<ellipse transform="matrix(0.7071 0.7071 -0.7071 0.7071 62.863 387.3062)" fill="#909A20" cx="-436.1" cy="269.5" rx="1.9" ry="4.5"/>
		<g>
			<ellipse fill="#909A20" cx="-435.1" cy="273.6" rx="4.5" ry="1.9"/>
			<ellipse fill="#909A20" cx="-443.8" cy="273" rx="3.1" ry="1.3"/>
			
				<ellipse transform="matrix(-0.7071 0.7071 -0.7071 -0.7071 -564.9624 774.0022)" fill="#909A20" cx="-442.8" cy="270" rx="1.3" ry="3.1"/>
		</g>
		<circle fill="#D980E0" cx="-439.1" cy="272.5" r="3.8"/>
	</g>
	<g>
		
			<ellipse transform="matrix(0.7071 -0.7071 0.7071 0.7071 -330.1007 -239.7608)" fill="#909A20" cx="-454.5" cy="278.6" rx="1.9" ry="4.5"/>
		<g>
			<ellipse fill="#909A20" cx="-450.5" cy="277.6" rx="1.9" ry="4.5"/>
			<ellipse fill="#909A20" cx="-451.1" cy="286.3" rx="1.3" ry="3.1"/>
			
				<ellipse transform="matrix(0.7071 0.7071 -0.7071 0.7071 68.6681 404.6104)" fill="#909A20" cx="-454.1" cy="285.2" rx="1.3" ry="3.1"/>
		</g>
		<circle fill="#D980E0" cx="-451.5" cy="281.6" r="3.8"/>
	</g>
	<g>
		<ellipse fill="#909A20" cx="-441.1" cy="278.2" rx="1.9" ry="4.5"/>
		<g>
			
				<ellipse transform="matrix(0.7071 0.7071 -0.7071 0.7071 70.0686 391.5524)" fill="#909A20" cx="-437.6" cy="280.4" rx="1.9" ry="4.5"/>
			
				<ellipse transform="matrix(0.7071 0.7071 -0.7071 0.7071 72.2022 397.7559)" fill="#909A20" cx="-444" cy="286" rx="1.3" ry="3.1"/>
			<ellipse fill="#909A20" cx="-445.5" cy="283.2" rx="3.1" ry="1.3"/>
		</g>
		<circle fill="#D980E0" cx="-441.1" cy="282.4" r="3.8"/>
	</g>
</g>
</svg>
