<?xml version="1.0" encoding="utf-8"?>
<!-- Generator: Adobe Illustrator 19.1.0, SVG Export Plug-In . SVG Version: 6.00 Build 0)  -->
<svg version="1.1" id="Layer_1" xmlns="http://www.w3.org/2000/svg" xmlns:xlink="http://www.w3.org/1999/xlink" x="0px" y="0px"
	 viewBox="-459 261.6 39.8 38.4" enable-background="new -459 261.6 39.8 38.4" xml:space="preserve">
<g>
	<circle fill="#C1C1C1" cx="-439.7" cy="280.7" r="18.6"/>
	<circle fill="#914040" cx="-439.7" cy="280.8" r="14.7"/>
	<g>
		
			<ellipse transform="matrix(0.7071 -0.7071 0.7071 0.7071 -326.4023 -239.0449)" fill="#909A20" cx="-451.8" cy="274.5" rx="1.9" ry="4.5"/>
		<g>
			<ellipse fill="#909A20" cx="-447.7" cy="273.5" rx="1.9" ry="4.5"/>
			<ellipse fill="#909A20" cx="-448.3" cy="282.2" rx="1.3" ry="3.1"/>
			
				<ellipse transform="matrix(0.7071 0.7071 -0.7071 0.7071 66.5782 401.4797)" fill="#909A20" cx="-451.3" cy="281.1" rx="1.3" ry="3.1"/>
		</g>
		<circle fill="#E2701A" cx="-448.8" cy="277.5" r="3.8"/>
	</g>
	<g>
		
			<ellipse transform="matrix(0.7071 0.7071 -0.7071 0.7071 61.4445 384.5685)" fill="#909A20" cx="-433.5" cy="266.5" rx="1.9" ry="4.5"/>
		<g>
			<ellipse fill="#909A20" cx="-432.4" cy="270.5" rx="4.5" ry="1.9"/>
			<ellipse fill="#909A20" cx="-441.1" cy="269.9" rx="3.1" ry="1.3"/>
			
				<ellipse transform="matrix(-0.7071 0.7071 -0.7071 -0.7071 -562.4247 766.6885)" fill="#909A20" cx="-440" cy="266.9" rx="1.3" ry="3.1"/>
		</g>
		<circle fill="#E2701A" cx="-436.4" cy="269.4" r="3.8"/>
	</g>
	<g>
		
			<ellipse transform="matrix(-0.7071 -0.7071 0.7071 -0.7071 -960.3737 186.0358)" fill="#909A20" cx="-441.7" cy="291.9" rx="1.9" ry="4.5"/>
		<g>
			<ellipse fill="#909A20" cx="-442.7" cy="287.8" rx="4.5" ry="1.9"/>
			<ellipse fill="#909A20" cx="-434" cy="288.4" rx="3.1" ry="1.3"/>
			
				<ellipse transform="matrix(0.7071 -0.7071 0.7071 0.7071 -333.5515 -222.2395)" fill="#909A20" cx="-435" cy="291.5" rx="1.3" ry="3.1"/>
		</g>
		<circle fill="#E2701A" cx="-438.7" cy="288.9" r="3.8"/>
	</g>
	<g>
		
			<ellipse transform="matrix(-0.7071 0.7071 -0.7071 -0.7071 -522.7888 781.9708)" fill="#909A20" cx="-423.3" cy="282.7" rx="1.9" ry="4.5"/>
		<g>
			<ellipse fill="#909A20" cx="-427.4" cy="283.8" rx="1.9" ry="4.5"/>
			<ellipse fill="#909A20" cx="-426.8" cy="275.1" rx="1.3" ry="3.1"/>
			
				<ellipse transform="matrix(-0.7071 -0.7071 0.7071 -0.7071 -918.5981 171.6696)" fill="#909A20" cx="-423.7" cy="276.1" rx="1.3" ry="3.1"/>
		</g>
		<circle fill="#E2701A" cx="-426.3" cy="279.8" r="3.8"/>
	</g>
	<g>
		<ellipse fill="#909A20" cx="-436.7" cy="283.2" rx="1.9" ry="4.5"/>
		<g>
			
				<ellipse transform="matrix(-0.7071 -0.7071 0.7071 -0.7071 -950.3973 168.4115)" fill="#909A20" cx="-440.3" cy="281" rx="1.9" ry="4.5"/>
			
				<ellipse transform="matrix(-0.7071 -0.7071 0.7071 -0.7071 -935.064 163.4151)" fill="#909A20" cx="-433.7" cy="275.4" rx="1.3" ry="3.1"/>
			<ellipse fill="#909A20" cx="-432.3" cy="278.2" rx="3.1" ry="1.3"/>
		</g>
		<circle fill="#E2701A" cx="-436.7" cy="279" r="3.8"/>
	</g>
</g>
</svg>
