<?xml version="1.0" encoding="utf-8"?>
<!-- Generator: Adobe Illustrator 19.1.0, SVG Export Plug-In . SVG Version: 6.00 Build 0)  -->
<svg version="1.1" id="Layer_1" xmlns="http://www.w3.org/2000/svg" xmlns:xlink="http://www.w3.org/1999/xlink" x="0px" y="0px"
	 viewBox="-434 252.7 91 57.3" enable-background="new -434 252.7 91 57.3" xml:space="preserve">
<g>
	<rect x="-430.1" y="257.3" fill="#5D6578" width="84" height="7.2"/>
	<rect x="-422.6" y="262.1" fill="#43CED1" width="70.2" height="2.3"/>
	<rect x="-430.1" y="265.4" fill="#5D6578" width="84" height="41.9"/>
	<g>
		<g>
			<g>
				<rect x="-426.2" y="267.9" fill="#B4BBC5" width="3.1" height="3.1"/>
			</g>
			<g>
				<rect x="-422.6" y="267.9" fill="#B4BBC5" width="3.1" height="3.1"/>
			</g>
			<g>
				<rect x="-418.9" y="267.9" fill="#B4BBC5" width="3.1" height="3.1"/>
			</g>
			<g>
				<rect x="-415.3" y="267.9" fill="#B4BBC5" width="3.1" height="3.1"/>
			</g>
			<g>
				<rect x="-411.7" y="267.9" fill="#B4BBC5" width="3.1" height="3.1"/>
			</g>
			<g>
				<rect x="-408" y="267.9" fill="#B4BBC5" width="3.1" height="3.1"/>
			</g>
			<g>
				<rect x="-404.4" y="267.9" fill="#B4BBC5" width="3.1" height="3.1"/>
			</g>
			<g>
				<rect x="-400.7" y="267.9" fill="#B4BBC5" width="3.1" height="3.1"/>
			</g>
			<g>
				<rect x="-397.1" y="267.9" fill="#B4BBC5" width="3.1" height="3.1"/>
			</g>
			<g>
				<rect x="-393.5" y="267.9" fill="#B4BBC5" width="3.1" height="3.1"/>
			</g>
			<g>
				<rect x="-389.8" y="267.9" fill="#B4BBC5" width="3.1" height="3.1"/>
			</g>
			<g>
				<rect x="-386.2" y="267.9" fill="#B4BBC5" width="3.1" height="3.1"/>
			</g>
		</g>
	</g>
	<g>
		<g>
			<g>
				<rect x="-378.2" y="267.9" fill="#B4BBC5" width="3.1" height="3.1"/>
			</g>
			<g>
				<rect x="-374.6" y="267.9" fill="#B4BBC5" width="3.1" height="3.1"/>
			</g>
			<g>
				<rect x="-370.9" y="267.9" fill="#B4BBC5" width="3.1" height="3.1"/>
			</g>
			<g>
				<rect x="-363.7" y="267.9" fill="#B4BBC5" width="3.1" height="3.1"/>
			</g>
			<g>
				<rect x="-360" y="267.9" fill="#B4BBC5" width="3.1" height="3.1"/>
			</g>
			<g>
				<rect x="-356.4" y="267.9" fill="#B4BBC5" width="3.1" height="3.1"/>
			</g>
			<g>
				<rect x="-352.8" y="267.9" fill="#B4BBC5" width="3.1" height="3.1"/>
			</g>
		</g>
	</g>
	<g>
		<rect x="-426.2" y="275.3" fill="#B4BBC5" width="3.1" height="3.1"/>
		<rect x="-422.6" y="275.3" fill="#B4BBC5" width="3.1" height="3.1"/>
		<rect x="-418.9" y="275.3" fill="#B4BBC5" width="3.1" height="3.1"/>
		<rect x="-415.3" y="275.3" fill="#B4BBC5" width="3.1" height="3.1"/>
		<rect x="-411.7" y="275.3" fill="#B4BBC5" width="3.1" height="3.1"/>
		<rect x="-408" y="275.3" fill="#B4BBC5" width="3.1" height="3.1"/>
		<rect x="-404.4" y="275.3" fill="#B4BBC5" width="3.1" height="3.1"/>
		<rect x="-400.7" y="275.3" fill="#B4BBC5" width="3.1" height="3.1"/>
		<rect x="-397.1" y="275.3" fill="#B4BBC5" width="3.1" height="3.1"/>
		<rect x="-393.5" y="275.3" fill="#B4BBC5" width="3.1" height="3.1"/>
		<rect x="-389.8" y="275.3" fill="#B4BBC5" width="6.8" height="3.1"/>
	</g>
	<g>
		<rect x="-426.2" y="279" fill="#B4BBC5" width="3.1" height="3.1"/>
		<rect x="-422.6" y="279" fill="#B4BBC5" width="3.1" height="3.1"/>
		<rect x="-418.9" y="279" fill="#B4BBC5" width="3.1" height="3.1"/>
		<rect x="-415.3" y="279" fill="#B4BBC5" width="3.1" height="3.1"/>
		<rect x="-411.7" y="279" fill="#B4BBC5" width="3.1" height="3.1"/>
		<rect x="-408" y="279" fill="#B4BBC5" width="3.1" height="3.1"/>
		<rect x="-404.4" y="279" fill="#B4BBC5" width="3.1" height="3.1"/>
		<rect x="-400.7" y="279" fill="#B4BBC5" width="3.1" height="3.1"/>
		<rect x="-397.1" y="279" fill="#B4BBC5" width="3.1" height="3.1"/>
		<rect x="-393.5" y="279" fill="#B4BBC5" width="3.1" height="3.1"/>
		<rect x="-389.8" y="279" fill="#B4BBC5" width="3.1" height="3.1"/>
		<rect x="-386.2" y="279" fill="#B4BBC5" width="3.1" height="3.1"/>
	</g>
	<g>
		<rect x="-426.2" y="282.7" fill="#B4BBC5" width="3.1" height="3.1"/>
		<rect x="-422.6" y="282.7" fill="#B4BBC5" width="3.1" height="3.1"/>
		<rect x="-418.9" y="282.7" fill="#B4BBC5" width="3.1" height="3.1"/>
		<rect x="-415.3" y="282.7" fill="#B4BBC5" width="3.1" height="3.1"/>
		<rect x="-411.7" y="282.7" fill="#B4BBC5" width="3.1" height="3.1"/>
		<rect x="-408" y="282.7" fill="#B4BBC5" width="3.1" height="3.1"/>
		<rect x="-404.4" y="282.7" fill="#B4BBC5" width="3.1" height="3.1"/>
		<rect x="-400.7" y="282.7" fill="#B4BBC5" width="3.1" height="3.1"/>
		<rect x="-397.1" y="282.7" fill="#B4BBC5" width="3.1" height="3.1"/>
		<rect x="-393.5" y="282.7" fill="#B4BBC5" width="3.1" height="3.1"/>
		<rect x="-389.8" y="282.7" fill="#B4BBC5" width="3.1" height="3.1"/>
		<rect x="-386.2" y="282.7" fill="#B4BBC5" width="3.1" height="3.1"/>
	</g>
	<g>
		<rect x="-426.2" y="286.5" fill="#B4BBC5" width="3.1" height="3.1"/>
		<rect x="-422.6" y="286.5" fill="#B4BBC5" width="3.1" height="3.1"/>
		<rect x="-418.9" y="286.5" fill="#B4BBC5" width="3.1" height="3.1"/>
		<rect x="-415.3" y="286.5" fill="#B4BBC5" width="3.1" height="3.1"/>
		<rect x="-411.7" y="286.5" fill="#B4BBC5" width="3.1" height="3.1"/>
		<rect x="-408" y="286.5" fill="#B4BBC5" width="3.1" height="3.1"/>
		<rect x="-404.4" y="286.5" fill="#B4BBC5" width="3.1" height="3.1"/>
		<rect x="-400.7" y="286.5" fill="#B4BBC5" width="3.1" height="3.1"/>
		<rect x="-397.1" y="286.5" fill="#B4BBC5" width="3.1" height="3.1"/>
		<rect x="-393.5" y="286.5" fill="#B4BBC5" width="3.1" height="3.1"/>
		<rect x="-389.8" y="286.5" fill="#B4BBC5" width="3.1" height="3.1"/>
		<rect x="-386.2" y="286.5" fill="#B4BBC5" width="3.1" height="3.1"/>
	</g>
	<rect x="-378.2" y="275.3" fill="#B4BBC5" width="3.1" height="6.8"/>
	<rect x="-374.6" y="275.3" fill="#B4BBC5" width="3.1" height="3.1"/>
	<rect x="-370.9" y="275.3" fill="#B4BBC5" width="3.1" height="3.1"/>
	<rect x="-374.6" y="279" fill="#B4BBC5" width="3.1" height="3.1"/>
	<rect x="-370.9" y="279" fill="#B4BBC5" width="3.1" height="3.1"/>
	<g>
		<rect x="-359.8" y="275.3" fill="#B4BBC5" width="3.1" height="3.1"/>
		<rect x="-356.1" y="275.3" fill="#B4BBC5" width="3.1" height="3.1"/>
		<rect x="-352.5" y="275.3" fill="#B4BBC5" width="3.1" height="3.1"/>
		<rect x="-359.8" y="279" fill="#B4BBC5" width="3.1" height="3.1"/>
		<rect x="-356.1" y="279" fill="#B4BBC5" width="3.1" height="3.1"/>
		<rect x="-352.5" y="279" fill="#B4BBC5" width="3.1" height="3.1"/>
		<rect x="-359.8" y="282.7" fill="#B4BBC5" width="3.1" height="3.1"/>
		<rect x="-356.1" y="282.7" fill="#B4BBC5" width="3.1" height="3.1"/>
		<rect x="-352.5" y="282.7" fill="#B4BBC5" width="3.1" height="3.1"/>
		<rect x="-359.8" y="286.5" fill="#B4BBC5" width="3.1" height="3.1"/>
		<rect x="-363.4" y="275.3" fill="#B4BBC5" width="3.1" height="3.1"/>
		<rect x="-363.4" y="279" fill="#B4BBC5" width="3.1" height="3.1"/>
		<rect x="-363.4" y="282.7" fill="#B4BBC5" width="3.1" height="3.1"/>
		<rect x="-363.4" y="286.5" fill="#B4BBC5" width="3.1" height="3.1"/>
		<rect x="-356.1" y="286.5" fill="#B4BBC5" width="3.1" height="3.1"/>
		<rect x="-352.5" y="286.5" fill="#B4BBC5" width="3.1" height="3.1"/>
	</g>
	<g>
		<rect x="-359.8" y="290" fill="#B4BBC5" width="3.1" height="3.1"/>
		<rect x="-356.1" y="290" fill="#B4BBC5" width="3.1" height="3.1"/>
		<rect x="-352.5" y="290" fill="#B4BBC5" width="3.1" height="3.1"/>
		<rect x="-359.8" y="293.7" fill="#B4BBC5" width="3.1" height="3.1"/>
		<rect x="-356.1" y="293.7" fill="#B4BBC5" width="3.1" height="3.1"/>
		<rect x="-352.5" y="293.7" fill="#B4BBC5" width="3.1" height="3.1"/>
		<rect x="-356.1" y="297.4" fill="#B4BBC5" width="3.1" height="3.1"/>
		<rect x="-352.5" y="297.4" fill="#B4BBC5" width="3.1" height="3.1"/>
		<rect x="-363.4" y="290" fill="#B4BBC5" width="3.1" height="3.1"/>
		<rect x="-363.4" y="293.7" fill="#B4BBC5" width="3.1" height="3.1"/>
		<rect x="-363.4" y="297.4" fill="#B4BBC5" width="6.8" height="3.1"/>
	</g>
	<g>
		<rect x="-426.2" y="290.2" fill="#B4BBC5" width="3.1" height="3.1"/>
		<rect x="-422.6" y="290.2" fill="#B4BBC5" width="3.1" height="3.1"/>
		<rect x="-418.9" y="290.2" fill="#B4BBC5" width="3.1" height="3.1"/>
		<rect x="-415.3" y="290.2" fill="#B4BBC5" width="3.1" height="3.1"/>
		<rect x="-411.7" y="290.2" fill="#B4BBC5" width="3.1" height="3.1"/>
		<rect x="-408" y="290.2" fill="#B4BBC5" width="3.1" height="3.1"/>
		<rect x="-404.4" y="290.2" fill="#B4BBC5" width="3.1" height="3.1"/>
		<rect x="-400.7" y="290.2" fill="#B4BBC5" width="3.1" height="3.1"/>
		<rect x="-397.1" y="290.2" fill="#B4BBC5" width="3.1" height="3.1"/>
		<rect x="-393.5" y="290.2" fill="#B4BBC5" width="3.1" height="3.1"/>
		<rect x="-389.8" y="290.2" fill="#B4BBC5" width="3.1" height="3.1"/>
		<rect x="-386.2" y="290.2" fill="#B4BBC5" width="3.1" height="3.1"/>
	</g>
	<g>
		<rect x="-426.2" y="293.9" fill="#B4BBC5" width="3.1" height="3.1"/>
		<rect x="-422.6" y="293.9" fill="#B4BBC5" width="3.1" height="3.1"/>
		<rect x="-418.9" y="293.9" fill="#B4BBC5" width="3.1" height="3.1"/>
		<rect x="-415.3" y="293.9" fill="#B4BBC5" width="3.1" height="3.1"/>
		<rect x="-411.7" y="293.9" fill="#B4BBC5" width="3.1" height="3.1"/>
		<rect x="-408" y="293.9" fill="#B4BBC5" width="3.1" height="3.1"/>
		<rect x="-404.4" y="293.9" fill="#B4BBC5" width="3.1" height="3.1"/>
		<rect x="-400.7" y="293.9" fill="#B4BBC5" width="3.1" height="3.1"/>
		<rect x="-397.1" y="293.9" fill="#B4BBC5" width="3.1" height="3.1"/>
		<rect x="-393.5" y="293.9" fill="#B4BBC5" width="3.1" height="3.1"/>
		<rect x="-389.8" y="293.9" fill="#B4BBC5" width="6.8" height="3.1"/>
	</g>
	<g>
		<rect x="-426.2" y="297.4" fill="#B4BBC5" width="3.1" height="3.1"/>
		<rect x="-422.6" y="297.4" fill="#B4BBC5" width="3.1" height="3.1"/>
		<rect x="-418.9" y="297.4" fill="#B4BBC5" width="3.1" height="3.1"/>
		<rect x="-415.3" y="297.4" fill="#B4BBC5" width="17.7" height="3.1"/>
		<rect x="-397.1" y="297.4" fill="#B4BBC5" width="3.1" height="3.1"/>
		<rect x="-393.5" y="297.4" fill="#B4BBC5" width="3.1" height="3.1"/>
		<rect x="-389.8" y="297.4" fill="#B4BBC5" width="3.1" height="3.1"/>
		<rect x="-386.2" y="297.4" fill="#B4BBC5" width="3.1" height="3.1"/>
	</g>
	<g>
		<rect x="-378.2" y="297.4" fill="#B4BBC5" width="3.1" height="3.1"/>
		<rect x="-374.6" y="297.4" fill="#B4BBC5" width="3.1" height="3.1"/>
		<rect x="-370.9" y="297.4" fill="#B4BBC5" width="3.1" height="3.1"/>
		<rect x="-374.6" y="293.9" fill="#B4BBC5" width="3.1" height="3.1"/>
	</g>
</g>
</svg>
