<?xml version="1.0" encoding="utf-8"?>
<!-- Generator: Adobe Illustrator 19.1.0, SVG Export Plug-In . SVG Version: 6.00 Build 0)  -->
<svg version="1.1" id="Layer_1" xmlns="http://www.w3.org/2000/svg" xmlns:xlink="http://www.w3.org/1999/xlink" x="0px" y="0px"
	 viewBox="-288 243.2 382 74.8" enable-background="new -288 243.2 382 74.8" xml:space="preserve">
<g>
	<rect x="-285.3" y="267.3" fill="#FFFFFF" width="376.3" height="47.7"/>
	<path fill="#A8A8A8" d="M91.5,315.5h-377.3v-48.7H91.5V315.5z M-284.8,314.5H90.5v-46.7h-375.3V314.5z"/>
	<g>
		<rect x="-285.3" y="246.4" fill="#FFFFFF" width="376.3" height="20.9"/>
		<path fill="#A8A8A8" d="M91.5,267.8h-377.3v-21.9H91.5V267.8z M-284.8,266.8H90.5v-19.9h-375.3V266.8z"/>
	</g>
	<g>
		<rect x="-272" y="259.7" fill="#B8F0FF" width="240.1" height="7.6"/>
		<path fill="#A8A8A8" d="M-31.4,267.8h-241.1v-8.6h241.1V267.8z M-271.5,266.8h239.1v-6.6h-239.1V266.8z"/>
	</g>
	<g>
		<rect x="-17.9" y="259.7" fill="#B8F0FF" width="93.8" height="7.6"/>
		<path fill="#A8A8A8" d="M76.4,267.8h-94.8v-8.6h94.8L76.4,267.8L76.4,267.8z M-17.4,266.8h92.8v-6.6h-92.8L-17.4,266.8
			L-17.4,266.8z"/>
	</g>
</g>
</svg>
