<?xml version="1.0" encoding="UTF-8"?>
<svg xmlns="http://www.w3.org/2000/svg" xmlns:xlink="http://www.w3.org/1999/xlink" x="0px" y="0px" viewBox="0 0 16 16">
  <style>
		.Black{fill:#727272;}
		.Yellow{fill:#FFB115;}
		.Blue{fill:#1177D7;}
		.Green{fill:#039C23;}
		.Red{fill:#D11C1C;}
		.White{fill:#FFFFFF;}
  </style>
  <title>Unchecked</title>
	<path class="Red" d="M14.5,2.8c-0.2-1-1-1.8-2.1-1.8h-1.9H7.8C5.6,1,4.9,2.8,4.9,5v2.1c0,1.2,0.4,2.5,1.2,3.3c0,0,1.3,1.5,2,4.1	c0.2,0.7,1.5,0.5,2,0s0-3.5,0-3.5h0.3h2.5l0,0c1.3,0,2.2-1.1,2.1-2.3L14.5,2.8z"/>
	<path class="Red" d="M3,2v6c0,0.6-0.4,1-1,1H1V1h1C2.6,1,3,1.4,3,2z"/>
</svg>
