<?xml version="1.0" encoding="utf-8"?>
<!-- Generator: Adobe Illustrator 23.0.2, SVG Export Plug-In . SVG Version: 6.00 Build 0)  -->
<svg version="1.1" id="Document_Properties" xmlns="http://www.w3.org/2000/svg" xmlns:xlink="http://www.w3.org/1999/xlink"
	 x="0px" y="0px" viewBox="0 0 32 32" style="enable-background:new 0 0 32 32;" xml:space="preserve">
<style type="text/css">
	.Black{fill:#727272;}
	.Green{fill:#039C23;}
</style>
<path class="Black" d="M12,26H6V4h6h6v5c0,0.6,0.4,1,1,1h5v4v0.4c0.7,0.2,1.4,0.5,2,0.8V9l-7-7H5C4.4,2,4,2.4,4,3v24
	c0,0.6,0.4,1,1,1h7.8C12.4,27.4,12.1,26.7,12,26z"/>
<path class="Green" d="M21,16c-3.9,0-7,3.1-7,7s3.1,7,7,7s7-3.1,7-7S24.9,16,21,16z M22,24v4h-2v-4h-4v-2h4v-4h2v4h4v2H22z"/>
</svg>
