<?xml version="1.0" encoding="utf-8"?>
<!-- Generator: Adobe Illustrator 21.1.0, SVG Export Plug-In . SVG Version: 6.00 Build 0)  -->
<svg version="1.1" id="Layer_1" xmlns="http://www.w3.org/2000/svg" xmlns:xlink="http://www.w3.org/1999/xlink" x="0px" y="0px"
	 viewBox="0 0 32 32" style="enable-background:new 0 0 32 32;" xml:space="preserve">
<style type="text/css">
	.Red{fill:#D11C1C;}
	.Black{fill:#727272;}
	.Green{fill:#039C23;}
	.White{fill:#FFFFFF;}
	.st0{opacity:0.4;}
</style>
<path class="Black" d="M29.5,16.6c-0.3-0.4-0.3-0.9,0-1.3C29.8,15,30,14.5,30,14c0-1.1-0.9-2-2-2c-1.1,0-2,0.9-2,2h-6v4h6
	c0,1.1,0.9,2,2,2c1.1,0,2-0.9,2-2C30,17.5,29.8,17,29.5,16.6z"/>
<path class="Red" d="M18,6H8v20h10c3.3,0,6-4.5,6-10C24,10.5,21.3,6,18,6z"/>
<g class="st0">
	<path class="Green" d="M18,6H8v20h10c3.3,0,6-4.5,6-10C24,10.5,21.3,6,18,6z"/>
</g>
<ellipse class="Red" cx="8" cy="16" rx="4" ry="10"/>
<ellipse class="White" cx="7" cy="14" rx="1" ry="2"/>
</svg>
