<?xml version="1.0" encoding="utf-8"?>
<!-- Generator: Adobe Illustrator 23.0.1, SVG Export Plug-In . SVG Version: 6.00 Build 0)  -->
<svg version="1.1" id="Layer_1" xmlns="http://www.w3.org/2000/svg" xmlns:xlink="http://www.w3.org/1999/xlink" x="0px" y="0px"
	 viewBox="0 0 32 32" style="enable-background:new 0 0 32 32;" xml:space="preserve">
<style type="text/css">
	.Black{fill:#727272;}
	.Blue{fill:#1177D7;}
	.Green{fill:#039C23;}
	.Yellow{fill:#FFB115;}
	.Red{fill:#D11C1C;}
	.White{fill:#FFFFFF;}
	.st0{opacity:0.5;}
	.st1{opacity:0.75;}
</style>
<polygon class="Yellow" points="20.4,13.6 24,17.2 24,18.5 24,24 18.5,24 17.2,24 13.6,20.4 4,30 30,30 30,4 "/>
<path class="Blue" d="M7,11l10,10l4-4L11,7L7,11z M6,10L4.3,8.3c-0.4-0.4-0.4-1,0-1.3L7,4.3c0.4-0.4,1-0.4,1.3,0L10,6L6,10z M22,18
	v4h-4L22,18z"/>
</svg>
