<?xml version="1.0" encoding="utf-8"?>
<!-- Generator: Adobe Illustrator 21.1.0, SVG Export Plug-In . SVG Version: 6.00 Build 0)  -->
<svg version="1.1" id="Layer_1" xmlns="http://www.w3.org/2000/svg" xmlns:xlink="http://www.w3.org/1999/xlink" x="0px" y="0px"
	 viewBox="0 0 32 32" style="enable-background:new 0 0 32 32;" xml:space="preserve">
<style type="text/css">
	.Black{fill:#727272;}
</style>
<path class="Black" d="M23.6,28H8.4c-1.2,0-2.2-1.1-2-2.4L10,12h12l3.6,13.6C25.8,26.9,24.9,28,23.6,28z"/>
<path class="Black" d="M16,4c-3.3,0-6,2.7-6,6h12C22,6.7,19.3,4,16,4z M13,9c-0.6,0-1-0.4-1-1s0.4-1,1-1s1,0.4,1,1S13.6,9,13,9z
	 M16,7c-0.6,0-1-0.4-1-1s0.4-1,1-1s1,0.4,1,1S16.6,7,16,7z M19,9c-0.6,0-1-0.4-1-1s0.4-1,1-1s1,0.4,1,1S19.6,9,19,9z"/>
</svg>
