<?xml version="1.0" encoding="utf-8"?>
<!-- Generator: Adobe Illustrator 21.1.0, SVG Export Plug-In . SVG Version: 6.00 Build 0)  -->
<svg version="1.1" id="Layer_1" xmlns="http://www.w3.org/2000/svg" xmlns:xlink="http://www.w3.org/1999/xlink" x="0px" y="0px"
	 viewBox="0 0 32 32" style="enable-background:new 0 0 32 32;" xml:space="preserve">
<style type="text/css">
	.Red{fill:#D11C1C;}
	.Black{fill:#727272;}
</style>
<polygon class="Black" points="18,11 16,11 13,2 15,2 "/>
<path class="Red" d="M22,6.1c-1-0.2-2.7,0-3.7,0.4l-1.2,0.4c-0.7,0.3-1.5,0.3-2.3,0l-1.2-0.4c-1-0.3-2.6-0.5-3.7-0.4
	c-3.6,0.6-6,3.1-6,8.4C4,21.3,8.3,28,12,28c0.4,0,0.8-0.1,1.1-0.2c0.3-0.1,1.6-1.2,2.9-1.2c1.3,0,2.6,1.1,2.9,1.2
	c0.3,0.1,0.6,0.2,1.1,0.2c3.7,0,8-6.7,8-13.5C28,9.2,25.6,6.7,22,6.1z"/>
</svg>
