<?xml version="1.0" encoding="utf-8"?>
<svg width="32" height="32" viewBox="0 0 32 32" fill="none" xmlns="http://www.w3.org/2000/svg">
	<style type="text/css">
		.Red{fill:#BB89CC;}
		.Yellow{fill:#DFC48F;}
		.Blue{fill:#71B5F4;}
		.Green{fill:#86BA73;}
		.Black{fill:#727272;}
		.White{fill:#FFFFFF;}
		.st0{opacity:0.5;}
		.st1{opacity:0.75;}
		.st2{opacity:0.35;}
		.st3{opacity:0.65;}
	</style>	
	<path class="Yellow" fill-rule="evenodd" clip-rule="evenodd" d="M11 0C10.4477 0 10 0.447716 10 1V10H21C22.3062 10 23.4175 10.8348 23.8293 12H27.88C27.9463 12 28 12.0537 28 12.12V15.88C28 15.9463 27.9463 16 27.88 16H24V20H31C31.5523 20 32 19.5523 32 19V1C32 0.447715 31.5523 0 31 0H11ZM14.12 4C14.0537 4 14 4.05373 14 4.12V7.88C14 7.94627 14.0537 8 14.12 8H27.88C27.9463 8 28 7.94627 28 7.88V4.12C28 4.05373 27.9463 4 27.88 4H14.12Z" />
	<path class="Yellow" fill-rule="evenodd" clip-rule="evenodd" d="M0 13C0 12.4477 0.447715 12 1 12H21C21.5523 12 22 12.4477 22 13V31C22 31.5523 21.5523 32 21 32H1C0.447716 32 0 31.5523 0 31V13ZM4 16.12C4 16.0537 4.05373 16 4.12 16H17.88C17.9463 16 18 16.0537 18 16.12V19.88C18 19.9463 17.9463 20 17.88 20H4.12C4.05373 20 4 19.9463 4 19.88V16.12ZM4.12 24C4.05373 24 4 24.0537 4 24.12V27.88C4 27.9463 4.05373 28 4.12 28H17.88C17.9463 28 18 27.9463 18 27.88V24.12C18 24.0537 17.9463 24 17.88 24H4.12Z" />
</svg>
