<?xml version="1.0" encoding="utf-8"?>
<svg width="32" height="32" viewBox="0 0 32 32" fill="none" xmlns="http://www.w3.org/2000/svg">
	<style type="text/css">
		.Red{fill:#BB89CC;}
		.Yellow{fill:#DFC48F;}
		.Blue{fill:#71B5F4;}
		.Green{fill:#86BA73;}
		.Black{fill:#727272;}
		.White{fill:#FFFFFF;}
		.st0{opacity:0.5;}
		.st1{opacity:0.75;}
		.st2{opacity:0.35;}
		.st3{opacity:0.65;}
	</style>
	<path class="Blue" fill-rule="evenodd" clip-rule="evenodd" d="M21.3938 0.118446C21.7193 -0.0610343 22.1131 -0.0349772 22.4145 0.185977L29.4031 5.30963C29.6772 5.56782 29.8254 5.70745 29.9056 5.88272C30 6.08913 30 6.34496 30 6.90209V17.7193C30 19.0344 29.9717 18.9612 29.8327 19.1181C29.7913 19.1409 29.3288 19.4038 29.2973 19.4282L10.3402 29.8816C10.0147 30.061 9.6209 30.035 9.31952 29.814L2.20699 24.6191C2.0781 24.525 2.0019 24.375 2.0019 24.2154V17.1902V12.0299C2.00188 11.9137 2.00198 11.8381 2.00198 11.7309C2.00206 11.2864 1.94507 10.8459 2.43673 10.5718L21.3938 0.118446ZM21.7575 4.17515C21.5252 4.01703 21.232 4.00286 20.9874 4.13793L8.33342 11.1419C7.44232 11.6504 7.59631 11.8326 8.04646 12.1515L11.5671 14.2905C11.7989 14.4352 12.0841 14.441 12.3209 14.3059L24.8093 7.38881C25.5006 6.9654 25.5701 6.78499 24.8093 6.24313L21.7575 4.17515Z"/>
</svg>