<?xml version="1.0" encoding="utf-8"?>
<svg width="32" height="32" viewBox="0 0 32 32" fill="none" xmlns="http://www.w3.org/2000/svg">
	<style type="text/css">
		.Red{fill:#BB89CC;}
		.Yellow{fill:#DFC48F;}
		.Blue{fill:#71B5F4;}
		.Green{fill:#86BA73;}
		.Black{fill:#727272;}
		.White{fill:#FFFFFF;}
		.st0{opacity:0.5;}
		.st1{opacity:0.75;}
		.st2{opacity:0.35;}
		.st3{opacity:0.65;}
	</style>
	<path class="Green" fill-rule="evenodd" clip-rule="evenodd" d="M23 6C22.4477 6 22 6.44772 22 7V10H19C18.4477 10 18 10.4477 18 11C18 11.5523 18.4477 12 19 12H22V14H19C18.4477 14 18 14.4477 18 15C18 15.5523 18.4477 16 19 16H22V19C22 19.5523 22.4477 20 23 20C23.5523 20 24 19.5523 24 19V16H26V19C26 19.5523 26.4477 20 27 20C27.5523 20 28 19.5523 28 19V16H31C31.5523 16 32 15.5523 32 15C32 14.4477 31.5523 14 31 14H28V12H31C31.5523 12 32 11.5523 32 11C32 10.4477 31.5523 10 31 10H28V7C28 6.44772 27.5523 6 27 6C26.4477 6 26 6.44772 26 7V10H24V7C24 6.44772 23.5523 6 23 6ZM24 12V14H26V12H24Z"/>
	<path class="Green" fill-rule="evenodd" clip-rule="evenodd" d="M13.6916 20.8511C12.7811 21.6611 11.6188 22.0635 10.2698 22.0635C6.56272 22.0635 3.96771 19.6128 3.96771 15.9652C3.96771 12.3175 6.50577 9.9363 10.2129 9.9363C11.384 9.9363 12.5339 10.2441 13.5384 10.8246C14.4688 11.3619 15.6784 11.0675 16.2409 10.1308C16.8105 9.18233 16.48 7.96917 15.5346 7.42297C13.9225 6.49135 12.0823 6 10.2129 6C4.37873 5.99977 0 10.0898 0 15.9652C0 21.8403 4.43566 26 10.2698 26C12.6173 26 14.7111 25.2312 16.3406 23.7814C17.1616 23.0508 17.2258 21.7946 16.4779 20.9858C15.7413 20.1892 14.4992 20.1322 13.6916 20.8511Z"/>
</svg>

