<?xml version="1.0" encoding="utf-8"?>
<svg width="32" height="32" viewBox="0 0 32 32" fill="none" xmlns="http://www.w3.org/2000/svg">
	<style type="text/css">
		.Red{fill:#BB89CC;}
		.Yellow{fill:#DFC48F;}
		.Blue{fill:#71B5F4;}
		.Green{fill:#86BA73;}
		.Black{fill:#727272;}
		.White{fill:#FFFFFF;}
		.st0{opacity:0.5;}
		.st1{opacity:0.75;}
		.st2{opacity:0.35;}
		.st3{opacity:0.65;}
	</style>
	<path class="Red" fill-rule="evenodd" clip-rule="evenodd" d="M14.9897 0.276295C15.6149 -0.0920985 16.3852 -0.0920983 17.0104 0.276295L28.9896 7.33481C29.6149 7.7032 30 8.38402 30 9.12081L30 22.8792C30 23.616 29.6148 24.2968 28.9896 24.6652L17.0103 31.7237C16.3851 32.0921 15.6148 32.0921 14.9896 31.7237L3.01036 24.6652C2.38515 24.2968 2 23.616 2 22.8792L2.00003 9.12081C2.00004 8.38402 2.38518 7.7032 3.0104 7.33481L14.9897 0.276295ZM6.00009 21.5158L6.00009 12.8967C6.00009 12.5115 6.41729 12.271 6.75062 12.464L13.7506 16.517C13.905 16.6064 14.0001 16.7713 14.0001 16.9497V25.6284C14.0001 26.015 13.5801 26.2554 13.2468 26.0595L6.24681 21.9469C6.09396 21.8571 6.00009 21.693 6.00009 21.5158ZM26 12.8965L25.9999 21.469C25.9999 21.6459 25.9065 21.8096 25.7541 21.8996L18.7542 26.033C18.4208 26.2298 17.9999 25.9895 17.9999 25.6024L18.0001 16.9495C18.0001 16.7711 18.0951 16.6062 18.2495 16.5168L25.2495 12.4638C25.5828 12.2708 26.0001 12.5113 26 12.8965ZM15.7477 13.1717L8.80161 9.10562C8.47228 8.91284 8.47159 8.43706 8.80037 8.24333L15.7475 4.14981C15.9044 4.05738 16.0991 4.05752 16.2558 4.15017L23.1804 8.24364C23.5084 8.43752 23.5077 8.91233 23.1791 9.10523L16.2535 13.1714C16.0974 13.263 15.9039 13.2631 15.7477 13.1717Z"/>
</svg>



