<?xml version="1.0" encoding="utf-8"?>
<!-- Generator: Adobe Illustrator 21.1.0, SVG Export Plug-In . SVG Version: 6.00 Build 0)  -->
<svg version="1.1" id="Layer_1" xmlns="http://www.w3.org/2000/svg" xmlns:xlink="http://www.w3.org/1999/xlink" x="0px" y="0px"
	 viewBox="0 0 32 32" style="enable-background:new 0 0 32 32;" xml:space="preserve">
<style type="text/css">
	.Green{fill:#039C23;}
</style>
<path class="Green" d="M25,26H5c-0.5,0-1,0.5-1,1s0.5,1,1,1h20c0.5,0,1-0.5,1-1S25.5,26,25,26z"/>
<path class="Green" d="M26,8h-2H6v12c0,2.2,1.8,4,4,4h10c2.2,0,4-1.8,4-4v-2h2c2.2,0,4-1.8,4-4v-2C30,9.8,28.2,8,26,8z M28,14
	c0,1.1-0.9,2-2,2h-2v-6h2c1.1,0,2,0.9,2,2V14z"/>
<polygon class="Green" points="12,6 10,6 12,2 14,2 "/>
<polygon class="Green" points="16,6 14,6 16,2 18,2 "/>
<polygon class="Green" points="20,6 18,6 20,2 22,2 "/>
</svg>
