<?xml version="1.0" encoding="utf-8"?>
<!-- Generator: Adobe Illustrator 23.1.0, SVG Export Plug-In . SVG Version: 6.00 Build 0)  -->
<svg version="1.1" id="Layer_1" xmlns="http://www.w3.org/2000/svg" xmlns:xlink="http://www.w3.org/1999/xlink" x="0px" y="0px"
	 viewBox="0 0 32 32" style="enable-background:new 0 0 32 32;" xml:space="preserve">
<style type="text/css">
	.altGreen{fill:#039C23;}
</style>
<path class="altGreen" d="M30,22.2V14h-6.2c-0.3-0.8-1-1.5-1.8-1.8V6h-8.2c-0.4-1.2-1.5-2-2.8-2C9.3,4,8,5.3,8,7
	c0,1.3,0.8,2.4,2,2.8V18H5.8c-0.4-1.2-1.5-2-2.8-2c-1.7,0-3,1.3-3,3s1.3,3,3,3c1.3,0,2.4-0.8,2.8-2H12V9.8c0.8-0.3,1.5-1,1.8-1.8H20
	v4.2c-1.2,0.4-2,1.5-2,2.8c0,1.7,1.3,3,3,3c1.3,0,2.4-0.8,2.8-2H28v6.2c-1.2,0.4-2,1.5-2,2.8c0,1.7,1.3,3,3,3s3-1.3,3-3
	C32,23.7,31.2,22.6,30,22.2z M3,20c-0.6,0-1-0.4-1-1s0.4-1,1-1s1,0.4,1,1S3.6,20,3,20z M11,8c-0.6,0-1-0.4-1-1s0.4-1,1-1s1,0.4,1,1
	S11.6,8,11,8z M21,16c-0.6,0-1-0.4-1-1s0.4-1,1-1s1,0.4,1,1S21.6,16,21,16z M29,26c-0.6,0-1-0.4-1-1s0.4-1,1-1s1,0.4,1,1
	S29.6,26,29,26z"/>
</svg>
