<?xml version="1.0" encoding="utf-8"?>
<!-- Generator: Adobe Illustrator 23.1.0, SVG Export Plug-In . SVG Version: 6.00 Build 0)  -->
<svg version="1.1" id="Layer_1" xmlns="http://www.w3.org/2000/svg" xmlns:xlink="http://www.w3.org/1999/xlink" x="0px" y="0px"
	 viewBox="0 0 32 32" style="enable-background:new 0 0 32 32;" xml:space="preserve">
<style type="text/css">
	.altRed{fill:#D11C1C;}
	.altYellow{fill:#FFB115;}
	.st0{opacity:0.5;}
	.st1{opacity:0.75;}
</style>
<g class="st0">
	<path class="altRed" d="M12,8l-4,4L2,6l4-4L12,8z M18,2l-4,4l12,10l4-4L18,2z"/>
</g>
<g class="st1">
	<polygon class="altRed" points="14,6 8,12 2,6 2,20 8,20 14,14 26,26 26,16 	"/>
</g>
<g class="st1">
	<polygon class="altYellow" points="26,30 2,30 2,20 8,20 14,14 26,26 	"/>
</g>
<polygon class="altRed" points="26,26 30,22 30,12 26,16 "/>
<polygon class="altYellow" points="30,26 26,30 26,26 30,22 "/>
</svg>
