<?xml version="1.0" encoding="utf-8"?>
<!-- Generator: Adobe Illustrator 23.1.0, SVG Export Plug-In . SVG Version: 6.00 Build 0)  -->
<svg version="1.1" id="Layer_1" xmlns="http://www.w3.org/2000/svg" xmlns:xlink="http://www.w3.org/1999/xlink" x="0px" y="0px"
	 viewBox="0 0 32 32" style="enable-background:new 0 0 32 32;" xml:space="preserve">
<style type="text/css">
	.altRed{fill:#D11C1C;}
	.altYellow{fill:#FFB115;}
	.altBlue{fill:#1177D7;}
</style>
<polygon class="altRed" points="2,28 2,22 8,22 8,18 14,18 14,16 24,16 24,22 30,22 30,28 "/>
<polyline class="altYellow" points="2,16 8,16 8,12 14,12 14,8 24,8 24,14 30,14 30,22 24,22 24,16 14,16 14,18 8,18 8,22 2,22 
	2,16 "/>
<polygon class="altBlue" points="2,4 30,4 30,14 24,14 24,8 14,8 14,12 8,12 8,16 2,16 "/>
</svg>
