<?xml version="1.0" encoding="utf-8"?>
<!-- Generator: Adobe Illustrator 20.1.0, SVG Export Plug-In . SVG Version: 6.00 Build 0)  -->
<svg version="1.1" id="Слой_1" xmlns="http://www.w3.org/2000/svg" xmlns:xlink="http://www.w3.org/1999/xlink" x="0px" y="0px"
	 viewBox="0 0 32 32" style="enable-background:new 0 0 32 32;" xml:space="preserve">
<style type="text/css">
	.Black{fill:#727272;}
	.White{fill:#FFFFFF;}
	.Blue{fill:#1177D7;}
</style>
<path class="Black" d="M26,2H8C6.9,2,6,2.9,6,4v22c0,1.1,0.9,2,2,2h18c1.1,0,2-0.9,2-2V4C28,2.9,27.1,2,26,2z M26,26H8V4h18V26z"/>
<rect x="2" y="6" class="Blue" width="30" height="12"/>
<path class="White" d="M4,8h2.2C6.7,8,9,8.3,9,12.1C9,15.6,6.7,16,6.3,16H4V8z M5.2,9.4v5.3h0.9c0.3,0,1.6-0.5,1.6-2.7
	c0-2.4-1.5-2.7-2-2.7H5.2V9.4z"/>
<path class="White" d="M10,12c0-0.8,0-4,3-4s3,2.8,3,4s0,4-3,4S10,13.3,10,12z M11.3,12c0,0.9,0.3,2.7,1.7,2.7
	c1.5,0,1.7-1.8,1.7-2.7s0-2.7-1.7-2.7C11.5,9.3,11.3,11.1,11.3,12z"/>
<path class="White" d="M21.7,13l1.3,0.5c-0.2,0.8-0.4,2.5-2.8,2.5C17,16,17,13.3,17,12.1c0-1.3,0-4.1,3.2-4.1c2.2,0,2.6,1.6,2.8,2.2
	l-1.4,0.4c-0.1-0.4-0.3-1.2-1.4-1.2c-1.6,0-1.7,1.7-1.7,2.6c0,1,0.2,2.7,1.7,2.7C21.5,14.7,21.5,13.6,21.7,13z"/>
<path class="White" d="M24,16l2.2-4.2l-2-3.8h1.5l1.3,2.6L28.3,8h1.5l-2,3.9L30,16h-1.6L27,13.2L25.6,16H24z"/>
</svg>
