<?xml version="1.0" encoding="utf-8"?>
<!-- Generator: Adobe Illustrator 20.1.0, SVG Export Plug-In . SVG Version: 6.00 Build 0)  -->
<svg version="1.1" id="Слой_1" xmlns="http://www.w3.org/2000/svg" xmlns:xlink="http://www.w3.org/1999/xlink" x="0px" y="0px"
	 viewBox="0 0 32 32" style="enable-background:new 0 0 32 32;" xml:space="preserve">
<style type="text/css">
	.Red{fill:#D11C1C;}
	.White{fill:#FFFFFF;}
	.Black{fill:#727272;}
</style>
<path class="Black" d="M26,2H8C6.9,2,6,2.9,6,4v22c0,1.1,0.9,2,2,2h18c1.1,0,2-0.9,2-2V4C28,2.9,27.1,2,26,2z M26,26H8V4h18V26z"/>
<rect x="4" y="6" class="Red" width="26" height="12"/>
<path class="White" d="M6,16V8h2v8H6z"/>
<path class="White" d="M10,16V8h2.5l1.5,5.5L15.5,8H18v8h-1.6V9.7L14.8,16h-1.6l-1.6-6.3V16H10z"/>
<path class="White" d="M24.3,13v-1.3H28v3.1c-0.4,0.3-1.2,1.2-3.7,1.2c-3.2,0-4.3-1.5-4.3-4c0-3.9,3.4-3.9,4.2-3.9
	c2.7,0,3.5,1.6,3.7,2.3l-1.7,0.3c-0.1-0.4-0.3-0.7-0.7-0.9c-0.3-0.2-0.7-0.3-1.2-0.3c-0.8,0-1.4,0.2-1.8,0.6s-0.7,1.1-0.7,1.9
	c0,0.9,0.2,1.6,0.7,2.1s1,0.7,1.8,0.7c0.4,0,1.8-0.1,2-0.7v-1L24.3,13C24.3,13.1,24.3,13,24.3,13z"/>
</svg>
