<?xml version="1.0" encoding="utf-8"?>
<!-- Generator: Adobe Illustrator 20.1.0, SVG Export Plug-In . SVG Version: 6.00 Build 0)  -->
<svg version="1.1" id="Слой_1" xmlns="http://www.w3.org/2000/svg" xmlns:xlink="http://www.w3.org/1999/xlink" x="0px" y="0px"
	 viewBox="0 0 32 32" style="enable-background:new 0 0 32 32;" xml:space="preserve">
<style type="text/css">
	.Yellow{fill:#FFB115;}
	.White{fill:#FFFFFF;}
	.Black{fill:#727272;}
</style>
<path class="Black" d="M26,2H8C6.9,2,6,2.9,6,4v22c0,1.1,0.9,2,2,2h18c1.1,0,2-0.9,2-2V4C28,2.9,27.1,2,26,2z M26,26H8V4h18V26z"/>
<rect x="4" y="6" class="Black" width="26" height="12"/>
<path class="White" d="M10.7,13l1.3,0.5c-0.2,0.8-0.6,2.5-2.9,2.5c-0.9,0-1.7-0.4-2.3-1.1C6.3,14.2,6,13.3,6,12.1
	c0-1.3,0.3-2.3,0.9-3C7.5,8.4,8.3,8,9.2,8c2.2,0,2.6,1.6,2.8,2.2l-1.4,0.4c-0.1-0.4-0.4-1.2-1.4-1.2C8.7,9.4,8.3,9.6,8,10
	s-0.5,1.1-0.5,2c0,1,0.2,1.7,0.5,2.1s0.7,0.6,1.2,0.6C10.3,14.7,10.5,13.6,10.7,13z"/>
<path class="White" d="M14,13.3l1.5-0.1c0.1,0.5,0.4,1.5,1.6,1.5c0.5,0,1.5-0.1,1.5-1c0-0.7-1.3-1-1.9-1.1c-0.8-0.2-1.4-0.5-1.7-0.8
	c-0.5-0.4-0.7-0.9-0.7-1.6c0-0.4,0.1-0.8,0.3-1.1s0.5-0.6,0.9-0.8S16.4,8,17,8c0.9,0,1.6,0.2,2.1,0.6c0.5,0.4,0.7,1,0.7,1.7
	l-1.5,0.1c-0.1-0.4-0.2-0.7-0.4-0.9c-0.2-0.2-0.5-0.3-0.9-0.3s-1.2,0.1-1.2,0.8s0.8,0.8,1.6,1c0.8,0.2,1.3,0.4,1.6,0.6
	c0.3,0.2,0.6,0.5,0.8,0.8c0.2,0.3,0.3,0.7,0.3,1.2c-0.1,0.9-0.6,1.7-1.4,2.1c-0.4,0.2-1,0.3-1.6,0.3C14.6,16,14.1,14.2,14,13.3z"/>
<path class="White" d="M24.3,16L22,8h1.4l1.6,5.9L26.6,8H28l-2.3,8H24.3z"/>
</svg>
