<?xml version="1.0" encoding="utf-8"?>
<!-- Generator: Adobe Illustrator 20.1.0, SVG Export Plug-In . SVG Version: 6.00 Build 0)  -->
<svg version="1.1" id="Слой_1" xmlns="http://www.w3.org/2000/svg" xmlns:xlink="http://www.w3.org/1999/xlink" x="0px" y="0px"
	 viewBox="0 0 32 32" style="enable-background:new 0 0 32 32;" xml:space="preserve">
<style type="text/css">
	.Yellow{fill:#FFB115;}
	.White{fill:#FFFFFF;}
	.Black{fill:#727272;}
	.Blue{fill:#1177D7;}
</style>
<polygon class="White" points="24,22 26,24 26,28 22,28 22,28 20,26 8,26 8,6 20,6 24,10 "/>
<path class="Blue" d="M16,20l2-2l10,10l-2,2L16,20z"/>
<path class="Black" d="M24,24V12h-4c-1.1,0-2-0.9-2-2V6H8v20h14l2,2H8c-1.1,0-2-0.9-2-2V6c0-1.1,0.9-2,2-2h12l6,6v16L24,24z M20,7v3
	h3L20,7z"/>
<polygon class="Yellow" points="11.2,13.2 15.2,14.5 18,12 18.5,16.2 22,18 17.9,19.9 16,24 14.2,20.5 10,20 12.5,17.2 "/>
</svg>
