<?xml version="1.0" encoding="utf-8"?>
<!-- Generator: Adobe Illustrator 24.1.0, SVG Export Plug-In . SVG Version: 6.00 Build 0)  -->
<svg version="1.1" id="Layer_1" xmlns="http://www.w3.org/2000/svg" xmlns:xlink="http://www.w3.org/1999/xlink" x="0px" y="0px"
	 viewBox="0 0 16 16" style="enable-background:new 0 0 16 16;" xml:space="preserve">
<style type="text/css">
	.Blue{fill:#31A8F7;}
</style>
<path class="Blue" d="M11,5.4c-0.1-0.5-0.5-0.9-1.1-1.2l2-3.8L11,0L8.8,4C8.7,4,8.6,4,8.5,4C8.4,4,8.3,4,8.1,4L6,0L5.1,0.5l2,3.8
	C6.6,4.5,6.2,4.8,6.1,5.2C2.6,5.8,0,7.9,0,10.5c0,3,3.6,5.5,8,5.5s8-2.5,8-5.5C16,8.2,13.9,6.2,11,5.4z M7,14c-2.8,0-5-1.6-5-3.5
	S4.2,7,7,7s5,1.6,5,3.5S9.8,14,7,14z"/>
</svg>
