<?xml version='1.0' encoding='UTF-8'?>
<svg viewBox="6 0 32 32" xmlns="http://www.w3.org/2000/svg">
  <g id="Layer_1" transform="translate(6, -4)">
    <g id="Arrow1Down">
      <path d="M14, 4L14, 18L13.3, 18L6, 18L16, 28L26, 18L18.7, 18L18, 18L18, 4L14, 4z" fill="#039C23" id="Group_Selection_2_" class="Green" />
    </g>
  </g>
  <g id="Layer_1" transform="translate(0, 14) rotate(90, 8, 8)">
    <g id="Remove_1_">
      <path d="M15, 10L1, 10C0.4, 10 0, 9.6 0, 9L0, 7C0, 6.4 0.4, 6 1, 6L15, 6C15.6, 6 16, 6.4 16, 7L16, 9C16, 9.6 15.6, 10 15, 10z" fill="#727272" class="Black" />
    </g>
  </g>
  <g id="Layer_1" transform="translate(6, 22)">
    <g id="Remove_1_">
      <path d="M15, 10L1, 10C0.4, 10 0, 9.6 0, 9L0, 7C0, 6.4 0.4, 6 1, 6L15, 6C15.6, 6 16, 6.4 16, 7L16, 9C16, 9.6 15.6, 10 15, 10z" fill="#727272" class="Black" />
    </g>
  </g>
  <g id="Layer_1" transform="translate(22, 22)">
    <g id="Remove_1_">
      <path d="M15, 10L1, 10C0.4, 10 0, 9.6 0, 9L0, 7C0, 6.4 0.4, 6 1, 6L15, 6C15.6, 6 16, 6.4 16, 7L16, 9C16, 9.6 15.6, 10 15, 10z" fill="#727272" class="Black" />
    </g>
  </g>
  <g id="Layer_1" transform="translate(28, 14) rotate(90, 8, 8)">
    <g id="Remove_1_">
      <path d="M15, 10L1, 10C0.4, 10 0, 9.6 0, 9L0, 7C0, 6.4 0.4, 6 1, 6L15, 6C15.6, 6 16, 6.4 16, 7L16, 9C16, 9.6 15.6, 10 15, 10z" fill="#727272" class="Black" />
    </g>
  </g>
  <g id="Layer_1" transform="translate(12, 22)">
    <g id="Remove_1_">
      <path d="M15, 10L1, 10C0.4, 10 0, 9.6 0, 9L0, 7C0, 6.4 0.4, 6 1, 6L15, 6C15.6, 6 16, 6.4 16, 7L16, 9C16, 9.6 15.6, 10 15, 10z" fill="#727272" class="Black" />
    </g>
  </g>
</svg>