<?xml version="1.0" encoding="utf-8"?>
<!-- Generator: Adobe Illustrator 22.1.0, SVG Export Plug-In . SVG Version: 6.00 Build 0)  -->
<!DOCTYPE svg PUBLIC "-//W3C//DTD SVG 1.1//EN" "http://www.w3.org/Graphics/SVG/1.1/DTD/svg11.dtd">
<svg version="1.1" id="Layer_1" xmlns="http://www.w3.org/2000/svg" xmlns:xlink="http://www.w3.org/1999/xlink" x="0px" y="0px"
	 viewBox="0 0 200 50" style="enable-background:new 0 0 200 50;" xml:space="preserve">
<style type="text/css">
	.Black{fill:#333333;}
	.st0{opacity:0.35;}
</style>
<g class="st0">
	<path class="Black" d="M50.9,13.4c-2.1,0-4.1,0.2-5.7,0.5v21.6c1.1,0.1,2.7,0.3,4.8,0.3c3.8,0,6.9-0.9,8.9-2.7
		c1.7-1.5,3.3-4.3,3.3-9c0-4-1.2-6.7-3.3-8.4C57.1,14.1,54.6,13.4,50.9,13.4z M51.1,32.3c-0.6,0-1.2,0-1.6-0.1V16.8
		c0.5-0.1,1.1-0.2,2-0.2c3.9,0,6.3,2.5,6.3,7.4C57.8,29.8,55.1,32.3,51.1,32.3z"/>
	<path class="Black" d="M71.6,19.2c-4.6,0-7.3,3.9-7.3,8.5c0,4.9,2.8,8,7.7,8c2,0,3.8-0.3,5.1-0.9l-0.6-2.9
		c-1.1,0.4-2.3,0.7-3.9,0.7c-2.3,0-4.2-1.1-4.3-3.8h9.5c0.1-0.5,0.1-1.1,0.1-1.7C78,22,75.5,19.2,71.6,19.2z M68.4,25.8
		c0.1-1.6,1-3.7,3-3.7c2.1,0,2.7,2,2.7,3.7H68.4z"/>
	<path class="Black" d="M89.8,19.6l-2,7.7c-0.3,1.4-0.6,2.7-0.9,4.1h-0.1c-0.3-1.4-0.5-2.7-0.9-4.1l-2.1-7.7h-4.5l5.3,15.9h4.1
		l5.4-15.9H89.8z"/>
	<path class="Black" d="M6.5,34c-0.8,1-1.4,1.9-1.8,2.7c-0.1,0.2-0.3,0.8-0.3,1.2v0.6c0,1,0.8,1.8,1.8,1.8h27.7c1,0,1.8-0.8,1.8-1.8
		V17.2C20.4,19.9,11.2,28.1,6.5,34z"/>
	<polygon class="Black" points="100.8,25.8 107.9,25.8 107.9,22.4 100.8,22.4 100.8,17.1 108.4,17.1 108.4,13.5 96.6,13.5 
		96.6,35.5 108.8,35.5 108.8,31.9 100.8,31.9 	"/>
	<path class="Black" d="M124.8,19.6h-4.5l-1.4,2.9c-0.4,0.8-0.8,1.7-1.2,2.5h-0.1c-0.4-0.8-0.8-1.6-1.2-2.5l-1.5-2.9h-4.7l4.7,7.8
		l-4.8,8h4.5l1.5-3.1c0.4-0.8,0.8-1.7,1.2-2.5h0.1c0.4,0.9,0.8,1.7,1.2,2.5l1.6,3.1h4.7l-4.8-8.2L124.8,19.6z"/>
	<path class="Black" d="M135.5,19.2c-2.1,0-3.7,0.9-4.7,2.5h-0.1l-0.2-2.2h-3.7c0.1,1.5,0.1,3.1,0.1,5.2v17.1h4.2v-7.9h0.1
		c0.7,1.1,2,1.9,3.8,1.9c3.2,0,6.5-2.6,6.5-8.4C141.5,22.5,139,19.2,135.5,19.2z M134,32.5c-1.4,0-2.8-1.1-2.8-3.4v-3
		c0-1.9,1.3-3.5,2.9-3.5c2.1,0,3.2,2.1,3.2,4.9C137.2,30.4,136.1,32.5,134,32.5z"/>
	<path class="Black" d="M148.3,22.3h-0.1l-0.2-2.8h-3.6c0.1,1.4,0.1,3,0.1,5v10.9h4.2v-8.2c0-2.7,1.5-4,3.4-4c0.4,0,0.8,0,1.1,0.1
		v-4c-0.3-0.1-0.5-0.1-0.9-0.1C150.7,19.2,149,20.3,148.3,22.3z"/>
	<path class="Black" d="M161.9,19.2c-4.6,0-7.3,3.9-7.3,8.5c0,4.9,2.8,8,7.7,8c2,0,3.8-0.3,5.1-0.9l-0.6-2.9
		c-1.1,0.4-2.3,0.7-3.9,0.7c-2.3,0-4.2-1.1-4.3-3.8h9.5c0.1-0.5,0.1-1.1,0.1-1.7C168.3,22,165.8,19.2,161.9,19.2z M158.7,25.8
		c0.1-1.6,1-3.7,3-3.7c2.1,0,2.7,2,2.7,3.7H158.7z"/>
	<path class="Black" d="M177.1,25.9c-1.8-0.8-2.4-1.2-2.4-2.1c0-0.9,0.7-1.5,2-1.5c1.2,0,2.3,0.5,3,0.8l0.8-3
		c-0.9-0.5-2.3-0.9-3.9-0.9c-3.5,0-5.8,2.2-5.8,5c0,1.7,1.1,3.4,4.1,4.6c1.7,0.7,2.3,1.3,2.3,2.2c0,1-0.7,1.6-2.2,1.6
		c-1.3,0-2.9-0.6-3.7-1.1l-0.8,3.1c1.1,0.6,2.7,1.1,4.5,1.1c4,0,6.2-2,6.2-5C181,28.5,179.7,27,177.1,25.9z"/>
	<path class="Black" d="M189.7,25.9c-1.8-0.8-2.4-1.2-2.4-2.1c0-0.9,0.7-1.5,2-1.5c1.2,0,2.3,0.5,3,0.8l0.8-3
		c-0.9-0.5-2.3-0.9-3.9-0.9c-3.5,0-5.8,2.2-5.8,5c0,1.7,1.1,3.4,4.1,4.6c1.7,0.7,2.3,1.3,2.3,2.2c0,1-0.7,1.6-2.2,1.6
		c-1.3,0-2.9-0.6-3.7-1.1l-0.8,3.1c1.1,0.6,2.7,1.1,4.5,1.1c4,0,6.2-2,6.2-5C193.6,28.5,192.4,27,189.7,25.9z"/>
	<path class="Black" d="M33.8,9H6.1c-1,0-1.8,0.8-1.8,1.8v16.6c5.5-5.8,15.2-12.1,30.1-13.8c0.4,0,1.2-0.2,1.2-1.3v-1.5
		C35.6,9.8,34.8,9,33.8,9z"/>
	<path class="Black" d="M197.7,18.6L197.7,18.6c0.5-0.1,0.7-0.4,0.7-0.8c0-0.3-0.1-0.5-0.3-0.6c-0.2-0.1-0.5-0.2-0.8-0.2h-0.9v2.9
		h0.6v-1.2h0.2c0.2,0,0.3,0.1,0.4,0.4l0.3,0.7h0.7l-0.3-0.8C198,18.9,197.9,18.7,197.7,18.6z M197.3,18.4h-0.4v-0.8h0.3
		c0.4,0,0.6,0.1,0.6,0.4c0,0.1,0,0.2-0.1,0.3C197.6,18.3,197.5,18.4,197.3,18.4z"/>
	<path class="Black" d="M199,16.9c-0.5-0.4-1-0.7-1.7-0.7c-0.7,0-1.2,0.2-1.7,0.7c-0.5,0.4-0.7,1-0.7,1.6c0,0.7,0.2,1.2,0.7,1.6
		c0.5,0.4,1,0.6,1.7,0.6c0.7,0,1.2-0.2,1.7-0.7c0.5-0.4,0.7-1,0.7-1.6C199.7,17.9,199.5,17.3,199,16.9z M198.7,19.9
		c-0.4,0.4-0.9,0.6-1.4,0.6c-0.6,0-1-0.2-1.4-0.6c-0.4-0.4-0.6-0.8-0.6-1.4c0-0.6,0.2-1,0.6-1.4c0.4-0.4,0.9-0.6,1.4-0.6
		c0.6,0,1,0.2,1.4,0.6c0.4,0.4,0.6,0.8,0.6,1.4C199.3,19.1,199.1,19.6,198.7,19.9z"/>
</g>
</svg>
