<?xml version="1.0" encoding="utf-8"?>
<!-- Generator: Adobe Illustrator 23.1.0, SVG Export Plug-In . SVG Version: 6.00 Build 0)  -->
<svg version="1.1" id="Layer_1" xmlns="http://www.w3.org/2000/svg" xmlns:xlink="http://www.w3.org/1999/xlink" x="0px" y="0px"
	 viewBox="0 0 32 32" style="enable-background:new 0 0 32 32;" xml:space="preserve">
<style type="text/css">
	.altRed{fill:#D11C1C;}
	.altYellow{fill:#FFB115;}
	.altBlue{fill:#1177D7;}
	.altGreen{fill:#039C23;}
</style>
<path class="altYellow" d="M12,2C9.8,2,8,3.8,8,6s1.8,4,4,4s4-1.8,4-4S14.2,2,12,2z M13,6c-0.6,0-1-0.4-1-1s0.4-1,1-1s1,0.4,1,1
	S13.6,6,13,6z"/>
<path class="altGreen" d="M23,6c-2.8,0-5,2.2-5,5s2.2,5,5,5s5-2.2,5-5S25.8,6,23,6z M24.5,11c-0.8,0-1.5-0.7-1.5-1.5S23.7,8,24.5,8
	S26,8.7,26,9.5S25.3,11,24.5,11z"/>
<path class="altBlue" d="M11,14c-3.9,0-7,3.1-7,7s3.1,7,7,7s7-3.1,7-7S14.9,14,11,14z M13,21c-1.1,0-2-0.9-2-2s0.9-2,2-2s2,0.9,2,2
	S14.1,21,13,21z"/>
<path class="altRed" d="M24,20c-1.1,0-2,0.9-2,2s0.9,2,2,2s2-0.9,2-2S25.1,20,24,20z M24.5,22c-0.3,0-0.5-0.2-0.5-0.5
	s0.2-0.5,0.5-0.5s0.5,0.2,0.5,0.5S24.8,22,24.5,22z"/>
</svg>
