<?xml version="1.0" encoding="utf-8"?>
<!-- Generator: Adobe Illustrator 23.1.0, SVG Export Plug-In . SVG Version: 6.00 Build 0)  -->
<svg version="1.1" id="Layer_1" xmlns="http://www.w3.org/2000/svg" xmlns:xlink="http://www.w3.org/1999/xlink" x="0px" y="0px"
	 viewBox="0 0 32 32" style="enable-background:new 0 0 32 32;" xml:space="preserve">
<style type="text/css">
	.altRed{fill:#D11C1C;}
	.altYellow{fill:#FFB115;}
	.altBlue{fill:#1177D7;}
	.st0{opacity:0.75;}
	.st1{opacity:0.5;}
</style>
<g class="st0">
	<rect x="2" y="18" class="altBlue" width="6" height="10"/>
</g>
<g class="st0">
	<rect x="12" y="12" class="altYellow" width="6" height="16"/>
</g>
<g class="st0">
	<rect x="22" y="6" class="altRed" width="6" height="22"/>
</g>
<g class="st1">
	<polygon class="altYellow" points="12,12 18,12 20,10 14,10 	"/>
</g>
<g class="st1">
	<polygon class="altBlue" points="2,18 8,18 10,16 4,16 	"/>
</g>
<g class="st1">
	<polygon class="altRed" points="24,4 22,6 28,6 30,4 	"/>
</g>
<polygon class="altBlue" points="8,28 10,26 10,16 8,18 "/>
<polygon class="altYellow" points="18,28 20,26 20,10 18,12 "/>
<polygon class="altRed" points="28,6 28,28 30,26 30,4 "/>
</svg>
