<?xml version="1.0" encoding="utf-8"?>
<!-- Generator: Adobe Illustrator 21.1.0, SVG Export Plug-In . SVG Version: 6.00 Build 0)  -->
<svg version="1.1" id="Layer_1" xmlns="http://www.w3.org/2000/svg" xmlns:xlink="http://www.w3.org/1999/xlink" x="0px" y="0px"
	 viewBox="0 0 32 32" style="enable-background:new 0 0 32 32;" xml:space="preserve">
<style type="text/css">
	.Yellow{fill:#FFB115;}
</style>
<path class="Yellow" d="M21,12.5c0,5.8-4,10.5-5,10.5s-5-4.7-5-10.5S15,2,16,2S21,6.7,21,12.5z"/>
<path class="Yellow" d="M27.1,25.6c-3.7,3.7-9.4,4.9-9.9,4.3s0.6-6.2,4.3-9.9s9.1-4.6,9.7-4.1C31.7,16.4,30.8,21.9,27.1,25.6z"/>
<path class="Yellow" d="M4.9,25.6c3.7,3.7,9.4,4.9,9.9,4.3c0.6-0.6-0.6-6.2-4.3-9.9s-9.1-4.6-9.7-4.1C0.3,16.4,1.2,21.9,4.9,25.6z"
	/>
</svg>
