<?xml version="1.0" encoding="utf-8"?>
<!-- Generator: Adobe Illustrator 21.1.0, SVG Export Plug-In . SVG Version: 6.00 Build 0)  -->
<svg version="1.1" id="Layer_1" xmlns="http://www.w3.org/2000/svg" xmlns:xlink="http://www.w3.org/1999/xlink" x="0px" y="0px"
	 viewBox="0 0 32 32" style="enable-background:new 0 0 32 32;" xml:space="preserve">
<style type="text/css">
	.Blue{fill:#1177D7;}
</style>
<path class="Blue" d="M28.5,11.2C27,12.3,26,14,26,16s1,3.7,2.4,4.8C30.7,19,32,17,32,16S30.7,13,28.5,11.2z M29,16
	c-0.6,0-1-0.4-1-1c0-0.6,0.4-1,1-1c0.6,0,1,0.4,1,1C30,15.6,29.6,16,29,16z"/>
<path class="Blue" d="M24,16c0-2.4,1.1-4.5,2.7-6C25,9,23,8.2,20.9,8c-1.9-1.8-6-3.7-6.9-4c0,0,0.3,3.1,1.3,4.7
	C14.1,9.1,13,9.6,12,10.2c-1.3,0.8-2.4,1.9-3.1,3c-0.2-0.1-0.5-0.3-0.8-0.4C4.9,11.7,0,11.3,0,12c0,0.7,2,2.5,4,4
	c-2.1,1.5-4,3.3-4,4c0,0.6,4.5,0.5,7.6-0.6c0.8-0.3,1.3-0.6,1.7-0.9c0.7,0.8,1.6,1.7,2.7,2.5c0.8,0.6,1.7,1.1,2.6,1.6
	C14.1,24.3,14,26,14,26c0.6-0.2,2.5-1.1,4.2-2.2c0.6,0.1,1.2,0.2,1.8,0.2c2.5,0,4.8-0.8,6.7-2C25.1,20.5,24,18.4,24,16z"/>
</svg>
