<?xml version="1.0" encoding="utf-8"?>
<!-- Generator: Adobe Illustrator 19.1.0, SVG Export Plug-In . SVG Version: 6.00 Build 0)  -->
<svg version="1.1" id="Layer_1" xmlns="http://www.w3.org/2000/svg" xmlns:xlink="http://www.w3.org/1999/xlink" x="0px" y="0px"
	 viewBox="-434 247 89.3 67" enable-background="new -434 247 89.3 67" xml:space="preserve">
<g>
	<g>
		<path fill="#605273" d="M-383.3,311.5h-12c-11,0-20-9-20-20v-8c0-11,14-21.5,25-21.5h2c11,0,25,10.5,25,21.5v8
			C-363.3,302.5-372.3,311.5-383.3,311.5z"/>
		<path fill="#605273" d="M-422.9,300.4L-422.9,300.4c-2.5,0-4.5-2-4.5-4.5v-18.2c0-2.5,2-4.5,4.5-4.5l0,0c2.5,0,4.5,2,4.5,4.5v18.1
			C-418.4,298.4-420.4,300.4-422.9,300.4z"/>
		<path fill="#605273" d="M-355.7,300.4L-355.7,300.4c-2.5,0-4.5-2-4.5-4.5v-18.2c0-2.5,2-4.5,4.5-4.5l0,0c2.5,0,4.5,2,4.5,4.5v18.1
			C-351.2,298.4-353.3,300.4-355.7,300.4z"/>
		<path fill="#605273" d="M-371.8,263c-4.3-1.1-7.4-4-17.5-4c-9.3,0-13.1,3-17.5,4c-2.5,0.6-4.7-2.1-4.7-4.7l0,0
			c0-2.6,3.3-4.1,4.7-4.7c0,0,7.5-4,17.5-4c9.5,0,17.5,4,17.5,4c2.5,1.3,4.7,2.1,4.7,4.7l0,0C-367.1,260.9-369.3,263.6-371.8,263z"
			/>
	</g>
</g>
</svg>
