<svg xmlns:rdf="http://www.w3.org/1999/02/22-rdf-syntax-ns#" xmlns="http://www.w3.org/2000/svg" xml:space="preserve" height="893.4" width="1096.2" version="1.1" y="0px" x="0px" xmlns:cc="http://creativecommons.org/ns#" xmlns:dc="http://purl.org/dc/elements/1.1/" viewBox="182.9 17.7 1096.1999 893.40001">
<g>
	<rect height="893.4" width="1096.2" y="17.7" x="182.9" class="st10" fill="#fff5d7"/>
	<rect height="893.4" width="32.6" y="17.7" x="182.9" fill="#faeac8"/>
	<rect height="893.4" width="32.6" y="17.7" x="219.8" fill="#faeac8"/>
	<rect height="893.4" width="32.6" y="17.7" x="256.7" fill="#faeac8"/>
	<rect height="893.4" width="32.6" y="17.7" x="293.5" fill="#faeac8"/>
	<rect width="32.8" y="17.7" fill="#faeac8" x="331.2" height="893.4"/>
	<rect width="32.8" y="17.7" fill="#faeac8" x="368.3" height="893.4"/>
	<rect width="32.8" y="17.7" fill="#faeac8" x="405.4" height="893.4"/>
	<rect width="32.8" y="17.7" fill="#faeac8" x="442.5" height="893.4"/>
	<rect width="32.8" y="17.7" fill="#faeac8" x="479.1" height="893.4"/>
	<rect width="32.8" y="17.7" fill="#faeac8" x="516.2" height="893.4"/>
	<rect width="32.8" y="17.7" fill="#faeac8" x="553.3" height="893.4"/>
	<rect width="32.8" y="17.7" fill="#faeac8" x="590.4" height="893.4"/>
	<rect width="32.8" y="17.7" fill="#faeac8" x="627.3" height="893.4"/>
	<rect width="32.8" y="17.7" fill="#faeac8" x="664.4" height="893.4"/>
	<rect width="32.8" y="17.7" fill="#faeac8" x="701.5" height="893.4"/>
	<rect width="32.8" y="17.7" fill="#faeac8" x="738.6" height="893.4"/>
	<rect width="32.8" y="17.7" fill="#faeac8" x="775.9" height="893.4"/>
	<rect width="32.8" y="17.7" fill="#faeac8" x="813" height="893.4"/>
	<rect width="32.8" y="17.7" fill="#faeac8" x="850.1" height="893.4"/>
	<rect width="32.8" y="17.7" fill="#faeac8" x="887.2" height="893.4"/>
	<rect width="32.8" y="17.7" fill="#faeac8" x="924.2" height="893.4"/>
	<rect width="32.8" y="17.7" fill="#faeac8" x="961.3" height="893.4"/>
	<rect width="32.8" y="17.7" fill="#faeac8" x="998.4" height="893.4"/>
	<rect width="32.8" y="17.7" fill="#faeac8" x="1035.5" height="893.4"/>
	<rect width="32.8" y="17.7" fill="#faeac8" x="1072.6" height="893.4"/>
	<rect width="32.8" y="17.7" fill="#faeac8" x="1109.7" height="893.4"/>
	<rect width="32.8" y="17.7" fill="#faeac8" x="1146.8" height="893.4"/>
	<rect width="32.8" y="17.7" fill="#faeac8" x="1183.9" height="893.4"/>
	<rect width="32.8" y="17.7" fill="#faeac8" x="1223.3" height="893.4"/>
	<rect width="17.6" y="17.7" fill="#faeac8" x="1261.5" height="893.4"/>
</g>
</svg>
