<?xml version="1.0" encoding="utf-8"?>
<!-- Generator: Adobe Illustrator 19.1.0, SVG Export Plug-In . SVG Version: 6.00 Build 0)  -->
<svg version="1.1" id="Layer_1" xmlns="http://www.w3.org/2000/svg" xmlns:xlink="http://www.w3.org/1999/xlink" x="0px" y="0px"
	 viewBox="-459 261.6 39.8 38.4" enable-background="new -459 261.6 39.8 38.4" xml:space="preserve">
<g>
	<circle fill="#C1C1C1" cx="-439.7" cy="280.7" r="18.6"/>
	<circle fill="#914040" cx="-439.7" cy="280.8" r="14.7"/>
	<g>
		<path fill="#87B254" d="M-441.5,262.9c-0.1,2-0.2,3.3-0.2,5.1c0,6.6,0.9,12,2.1,12c1.2,0,2.1-5.4,2.1-12c0-1.8-0.1-3.1-0.2-5.1
			C-437.7,262.9-441.5,262.9-441.5,262.9z"/>
		<path fill="#87B254" d="M-437.7,296.9c0.1-2,0.2-2.9,0.2-4.7c0-6.6-0.9-11.8-2.1-11.8c-1.2,0-2.1,5.1-2.1,11.7
			c0,1.8,0.1,2.8,0.2,4.8H-437.7z"/>
	</g>
	<g>
		<path fill="#87B254" d="M-423,278.4c-2-0.1-2.9-0.2-4.7-0.2c-6.6,0-11.8,0.9-11.8,2.1c0,1.2,5.1,2.1,11.7,2.1
			c1.8,0,2.8-0.1,4.8-0.2V278.4z"/>
		<path fill="#87B254" d="M-457,282.2c2,0.1,3.3,0.2,5.1,0.2c6.6,0,12-0.9,12-2.1c0-1.2-5.4-2.1-12-2.1c-1.8,0-3.1,0.1-5.1,0.2
			C-457,278.4-457,282.2-457,282.2z"/>
	</g>
	<g>
		<path fill="#87B254" d="M-429,266.9c-1.5,1.3-2.3,2.1-3.6,3.3c-4.6,4.6-7.7,9-6.9,9.8c0.8,0.8,5.2-2.2,9.8-6.9
			c1.3-1.3,2-2.1,3.3-3.6L-429,266.9z"/>
		<path fill="#87B254" d="M-450.4,293.6c1.5-1.3,2.4-2.1,3.6-3.4c4.6-4.6,7.7-9.1,6.9-9.9c-0.8-0.8-5.2,2.3-9.9,6.9
			c-1.2,1.4-1.9,2.3-3.3,3.8L-450.4,293.6z"/>
	</g>
	<g>
		<path fill="#87B254" d="M-426.4,291c-1.3-1.5-2.1-2.3-3.3-3.6c-4.6-4.6-9-7.7-9.8-6.9c-0.8,0.8,2.2,5.2,6.9,9.8
			c1.3,1.3,2.1,2,3.6,3.3L-426.4,291z"/>
		<path fill="#87B254" d="M-453.1,269.6c1.3,1.5,2.1,2.4,3.4,3.6c4.6,4.6,9.1,7.7,9.9,6.9c0.8-0.8-2.3-5.2-6.9-9.9
			c-1.3-1.2-2.2-2-3.7-3.3L-453.1,269.6z"/>
	</g>
</g>
</svg>
