<?xml version="1.0" encoding="utf-8"?>
<!-- Generator: Adobe Illustrator 19.1.0, SVG Export Plug-In . SVG Version: 6.00 Build 0)  -->
<svg version="1.1" id="Layer_1" xmlns="http://www.w3.org/2000/svg" xmlns:xlink="http://www.w3.org/1999/xlink" x="0px" y="0px"
	 viewBox="-459 261.6 39.8 38.4" enable-background="new -459 261.6 39.8 38.4" xml:space="preserve">
<g>
	<circle fill="#D6D6D6" cx="-439.5" cy="280.7" r="18.6"/>
	<circle fill="#914040" cx="-439.5" cy="280.8" r="14.7"/>
	<g>
		
			<ellipse transform="matrix(0.7071 -0.7071 0.7071 0.7071 -326.3602 -238.9035)" fill="#909A20" cx="-451.6" cy="274.5" rx="1.9" ry="4.5"/>
		<g>
			<ellipse fill="#909A20" cx="-447.6" cy="273.5" rx="1.9" ry="4.5"/>
			<ellipse fill="#909A20" cx="-448.2" cy="282.2" rx="1.3" ry="3.1"/>
			
				<ellipse transform="matrix(0.7071 0.7071 -0.7071 0.7071 66.6367 401.3782)" fill="#909A20" cx="-451.2" cy="281.1" rx="1.3" ry="3.1"/>
		</g>
		<circle fill="#FFBD1A" cx="-448.6" cy="277.5" r="3.8"/>
	</g>
	<g>
		
			<ellipse transform="matrix(0.7071 0.7071 -0.7071 0.7071 61.4738 384.3962)" fill="#909A20" cx="-433.3" cy="266.4" rx="1.9" ry="4.5"/>
		<g>
			<ellipse fill="#909A20" cx="-432.3" cy="270.5" rx="4.5" ry="1.9"/>
			<ellipse fill="#909A20" cx="-440.9" cy="269.9" rx="3.1" ry="1.3"/>
			
				<ellipse transform="matrix(-0.7071 0.7071 -0.7071 -0.7071 -562.1796 766.5471)" fill="#909A20" cx="-439.8" cy="266.8" rx="1.3" ry="3.1"/>
		</g>
		<circle fill="#FFBD1A" cx="-436.3" cy="269.4" r="3.8"/>
	</g>
	<g>
		
			<ellipse transform="matrix(-0.7071 -0.7071 0.7071 -0.7071 -960.0323 186.1374)" fill="#909A20" cx="-441.5" cy="291.9" rx="1.9" ry="4.5"/>
		<g>
			<ellipse fill="#909A20" cx="-442.5" cy="287.8" rx="4.5" ry="1.9"/>
			<ellipse fill="#909A20" cx="-433.9" cy="288.4" rx="3.1" ry="1.3"/>
			
				<ellipse transform="matrix(0.7071 -0.7071 0.7071 0.7071 -333.4802 -222.1687)" fill="#909A20" cx="-434.9" cy="291.5" rx="1.3" ry="3.1"/>
		</g>
		<circle fill="#FFBD1A" cx="-438.5" cy="288.9" r="3.8"/>
	</g>
	<g>
		
			<ellipse transform="matrix(-0.7071 0.7071 -0.7071 -0.7071 -522.373 781.9002)" fill="#909A20" cx="-423.1" cy="282.8" rx="1.9" ry="4.5"/>
		<g>
			<ellipse fill="#909A20" cx="-427.2" cy="283.8" rx="1.9" ry="4.5"/>
			<ellipse fill="#909A20" cx="-426.6" cy="275.1" rx="1.3" ry="3.1"/>
			
				<ellipse transform="matrix(-0.7071 -0.7071 0.7071 -0.7071 -918.4275 171.8419)" fill="#909A20" cx="-423.6" cy="276.1" rx="1.3" ry="3.1"/>
		</g>
		<circle fill="#FFBD1A" cx="-426.1" cy="279.8" r="3.8"/>
	</g>
	<g>
		<ellipse fill="#909A20" cx="-436.5" cy="283.2" rx="1.9" ry="4.5"/>
		<g>
			
				<ellipse transform="matrix(-0.7071 -0.7071 0.7071 -0.7071 -950.0559 168.5131)" fill="#909A20" cx="-440.1" cy="281" rx="1.9" ry="4.5"/>
			
				<ellipse transform="matrix(-0.7071 -0.7071 0.7071 -0.7071 -934.8933 163.5874)" fill="#909A20" cx="-433.6" cy="275.4" rx="1.3" ry="3.1"/>
			<ellipse fill="#909A20" cx="-432.1" cy="278.2" rx="3.1" ry="1.3"/>
		</g>
		<circle fill="#FFBD1A" cx="-436.5" cy="279" r="3.8"/>
	</g>
</g>
</svg>
