<?xml version="1.0" encoding="utf-8"?>
<!-- Generator: Adobe Illustrator 19.1.0, SVG Export Plug-In . SVG Version: 6.00 Build 0)  -->
<svg version="1.1" id="Layer_1" xmlns="http://www.w3.org/2000/svg" xmlns:xlink="http://www.w3.org/1999/xlink" x="0px" y="0px"
	 viewBox="-421 255.2 116 50.8" enable-background="new -421 255.2 116 50.8" xml:space="preserve">
<g>
	<rect x="-412.9" y="265.3" fill="#FFFFFF" width="101.1" height="33.8"/>
	<rect x="-411.3" y="267.2" fill="#43CED1" width="4.4" height="4.4"/>
	<rect x="-405.5" y="267.2" fill="#43CED1" width="4.4" height="4.4"/>
	<rect x="-399.5" y="267.2" fill="#43CED1" width="4.4" height="4.4"/>
	<rect x="-393.7" y="267.2" fill="#43CED1" width="4.4" height="4.4"/>
	<rect x="-387.7" y="267.2" fill="#43CED1" width="4.4" height="4.4"/>
	<g>
		<rect x="-411.3" y="273.9" fill="#43CED1" width="4.4" height="4.4"/>
		<rect x="-405.4" y="273.9" fill="#43CED1" width="4.4" height="4.4"/>
		<rect x="-399.5" y="273.9" fill="#43CED1" width="4.4" height="4.4"/>
		<rect x="-393.6" y="273.9" fill="#43CED1" width="4.4" height="4.4"/>
		<rect x="-387.7" y="273.9" fill="#43CED1" width="4.4" height="4.4"/>
		<rect x="-381.8" y="273.9" fill="#43CED1" width="4.4" height="4.4"/>
		<rect x="-376" y="273.9" fill="#43CED1" width="4.4" height="4.4"/>
		<rect x="-370.1" y="273.9" fill="#43CED1" width="4.4" height="4.4"/>
		<rect x="-364.2" y="273.9" fill="#43CED1" width="4.4" height="4.4"/>
		<rect x="-358.3" y="273.9" fill="#43CED1" width="4.4" height="4.4"/>
	</g>
	<g>
		<rect x="-411.3" y="279.5" fill="#43CED1" width="4.4" height="4.4"/>
		<rect x="-405.4" y="279.5" fill="#43CED1" width="4.4" height="4.4"/>
		<rect x="-399.5" y="279.5" fill="#43CED1" width="4.4" height="4.4"/>
		<rect x="-393.6" y="279.5" fill="#43CED1" width="4.4" height="4.4"/>
		<rect x="-387.7" y="279.5" fill="#43CED1" width="4.4" height="4.4"/>
		<rect x="-381.8" y="279.5" fill="#43CED1" width="4.4" height="4.4"/>
		<rect x="-376" y="279.5" fill="#43CED1" width="4.4" height="4.4"/>
		<rect x="-370.1" y="279.5" fill="#43CED1" width="4.4" height="4.4"/>
		<rect x="-364.2" y="279.5" fill="#43CED1" width="4.4" height="4.4"/>
		<rect x="-358.3" y="279.5" fill="#43CED1" width="4.4" height="4.4"/>
	</g>
	<g>
		<rect x="-411.3" y="285.3" fill="#43CED1" width="4.4" height="4.4"/>
		<rect x="-405.4" y="285.3" fill="#43CED1" width="4.4" height="4.4"/>
		<rect x="-399.5" y="285.3" fill="#43CED1" width="4.4" height="4.4"/>
		<rect x="-393.6" y="285.3" fill="#43CED1" width="4.4" height="4.4"/>
		<rect x="-387.7" y="285.3" fill="#43CED1" width="4.4" height="4.4"/>
		<rect x="-381.8" y="285.3" fill="#43CED1" width="4.4" height="4.4"/>
		<rect x="-376" y="285.3" fill="#43CED1" width="4.4" height="4.4"/>
		<rect x="-370.1" y="285.3" fill="#43CED1" width="4.4" height="4.4"/>
		<rect x="-364.2" y="285.3" fill="#43CED1" width="4.4" height="4.4"/>
		<rect x="-358.3" y="285.3" fill="#43CED1" width="4.4" height="4.4"/>
	</g>
	<g>
		<rect x="-411.3" y="290.8" fill="#43CED1" width="4.4" height="4.4"/>
		<rect x="-405.4" y="290.8" fill="#43CED1" width="4.4" height="4.4"/>
		<rect x="-399.5" y="290.8" fill="#43CED1" width="4.4" height="4.4"/>
		<rect x="-393.6" y="290.8" fill="#43CED1" width="16.2" height="4.4"/>
		<rect x="-376" y="290.8" fill="#43CED1" width="4.4" height="4.4"/>
		<rect x="-370.1" y="290.8" fill="#43CED1" width="4.4" height="4.4"/>
		<rect x="-364.2" y="290.8" fill="#43CED1" width="4.4" height="4.4"/>
		<rect x="-358.3" y="290.8" fill="#43CED1" width="4.4" height="4.4"/>
	</g>
	<rect x="-376" y="267.2" fill="#43CED1" width="4.4" height="4.4"/>
	<rect x="-370.2" y="267.2" fill="#43CED1" width="4.4" height="4.4"/>
	<rect x="-364.2" y="267.2" fill="#43CED1" width="4.4" height="4.4"/>
	<rect x="-358.4" y="267.2" fill="#43CED1" width="4.4" height="4.4"/>
	<rect x="-349.4" y="267.2" fill="#43CED1" width="4.4" height="4.4"/>
	<rect x="-343.5" y="267.2" fill="#43CED1" width="4.4" height="4.4"/>
	<rect x="-337.7" y="267.2" fill="#43CED1" width="4.4" height="4.4"/>
	<rect x="-350.2" y="290.8" fill="#43CED1" width="4.4" height="4.4"/>
	<rect x="-344.3" y="290.8" fill="#43CED1" width="4.4" height="4.4"/>
	<rect x="-344.3" y="285.3" fill="#43CED1" width="4.4" height="4.4"/>
	<rect x="-338.5" y="290.8" fill="#43CED1" width="4.4" height="4.4"/>
	<rect x="-329.8" y="290.8" fill="#43CED1" width="4.4" height="4.4"/>
	<rect x="-323.8" y="290.8" fill="#43CED1" width="4.4" height="4.4"/>
	<rect x="-318" y="290.8" fill="#43CED1" width="4.4" height="4.4"/>
	<rect x="-329.8" y="285.3" fill="#43CED1" width="4.4" height="4.4"/>
	<rect x="-323.8" y="285.3" fill="#43CED1" width="4.4" height="4.4"/>
	<rect x="-318" y="285.3" fill="#43CED1" width="4.4" height="4.4"/>
	<rect x="-329.8" y="279.5" fill="#43CED1" width="4.4" height="4.4"/>
	<rect x="-323.8" y="279.5" fill="#43CED1" width="4.4" height="4.4"/>
	<rect x="-318" y="279.5" fill="#43CED1" width="4.4" height="4.4"/>
	<rect x="-329.8" y="273.9" fill="#43CED1" width="4.4" height="4.4"/>
	<rect x="-323.8" y="273.9" fill="#43CED1" width="4.4" height="4.4"/>
	<rect x="-318" y="273.9" fill="#43CED1" width="4.4" height="4.4"/>
	<rect x="-330" y="267.2" fill="#43CED1" width="4.4" height="4.4"/>
	<rect x="-323.8" y="267.2" fill="#43CED1" width="4.4" height="4.4"/>
	<rect x="-318" y="267.2" fill="#43CED1" width="4.4" height="4.4"/>
</g>
</svg>
