<?xml version="1.0" encoding="utf-8"?>
<!-- Generator: Adobe Illustrator 19.1.0, SVG Export Plug-In . SVG Version: 6.00 Build 0)  -->
<svg version="1.1" id="Layer_1" xmlns="http://www.w3.org/2000/svg" xmlns:xlink="http://www.w3.org/1999/xlink" x="0px" y="0px"
	 viewBox="-421 255.2 116 50.8" enable-background="new -421 255.2 116 50.8" xml:space="preserve">
<g>
	<rect x="-413.5" y="263.7" fill="#5D6578" width="101.1" height="33.8"/>
	<rect x="-411.9" y="265.6" fill="#B4BBC5" width="4.4" height="4.4"/>
	<rect x="-406.1" y="265.6" fill="#B4BBC5" width="4.4" height="4.4"/>
	<rect x="-400.1" y="265.6" fill="#B4BBC5" width="4.4" height="4.4"/>
	<rect x="-394.3" y="265.6" fill="#B4BBC5" width="4.4" height="4.4"/>
	<rect x="-388.3" y="265.6" fill="#B4BBC5" width="4.4" height="4.4"/>
	<g>
		<rect x="-411.9" y="272.3" fill="#B4BBC5" width="4.4" height="4.4"/>
		<rect x="-406" y="272.3" fill="#B4BBC5" width="4.4" height="4.4"/>
		<rect x="-400.1" y="272.3" fill="#B4BBC5" width="4.4" height="4.4"/>
		<rect x="-394.2" y="272.3" fill="#B4BBC5" width="4.4" height="4.4"/>
		<rect x="-388.3" y="272.3" fill="#B4BBC5" width="4.4" height="4.4"/>
		<rect x="-382.5" y="272.3" fill="#B4BBC5" width="4.4" height="4.4"/>
		<rect x="-376.6" y="272.3" fill="#B4BBC5" width="4.4" height="4.4"/>
		<rect x="-370.7" y="272.3" fill="#B4BBC5" width="4.4" height="4.4"/>
		<rect x="-364.8" y="272.3" fill="#B4BBC5" width="4.4" height="4.4"/>
		<rect x="-358.9" y="272.3" fill="#B4BBC5" width="4.4" height="4.4"/>
	</g>
	<g>
		<rect x="-411.9" y="277.9" fill="#B4BBC5" width="4.4" height="4.4"/>
		<rect x="-406" y="277.9" fill="#B4BBC5" width="4.4" height="4.4"/>
		<rect x="-400.1" y="277.9" fill="#B4BBC5" width="4.4" height="4.4"/>
		<rect x="-394.2" y="277.9" fill="#B4BBC5" width="4.4" height="4.4"/>
		<rect x="-388.3" y="277.9" fill="#B4BBC5" width="4.4" height="4.4"/>
		<rect x="-382.5" y="277.9" fill="#B4BBC5" width="4.4" height="4.4"/>
		<rect x="-376.6" y="277.9" fill="#B4BBC5" width="4.4" height="4.4"/>
		<rect x="-370.7" y="277.9" fill="#B4BBC5" width="4.4" height="4.4"/>
		<rect x="-364.8" y="277.9" fill="#B4BBC5" width="4.4" height="4.4"/>
		<rect x="-358.9" y="277.9" fill="#B4BBC5" width="4.4" height="4.4"/>
	</g>
	<g>
		<rect x="-411.9" y="283.7" fill="#B4BBC5" width="4.4" height="4.4"/>
		<rect x="-406" y="283.7" fill="#B4BBC5" width="4.4" height="4.4"/>
		<rect x="-400.1" y="283.7" fill="#B4BBC5" width="4.4" height="4.4"/>
		<rect x="-394.2" y="283.7" fill="#B4BBC5" width="4.4" height="4.4"/>
		<rect x="-388.3" y="283.7" fill="#B4BBC5" width="4.4" height="4.4"/>
		<rect x="-382.5" y="283.7" fill="#B4BBC5" width="4.4" height="4.4"/>
		<rect x="-376.6" y="283.7" fill="#B4BBC5" width="4.4" height="4.4"/>
		<rect x="-370.7" y="283.7" fill="#B4BBC5" width="4.4" height="4.4"/>
		<rect x="-364.8" y="283.7" fill="#B4BBC5" width="4.4" height="4.4"/>
		<rect x="-358.9" y="283.7" fill="#B4BBC5" width="4.4" height="4.4"/>
	</g>
	<g>
		<rect x="-411.9" y="289.2" fill="#B4BBC5" width="4.4" height="4.4"/>
		<rect x="-406" y="289.2" fill="#B4BBC5" width="4.4" height="4.4"/>
		<rect x="-400.1" y="289.2" fill="#B4BBC5" width="4.4" height="4.4"/>
		<rect x="-394.2" y="289.2" fill="#B4BBC5" width="16.2" height="4.4"/>
		<rect x="-376.6" y="289.2" fill="#B4BBC5" width="4.4" height="4.4"/>
		<rect x="-370.7" y="289.2" fill="#B4BBC5" width="4.4" height="4.4"/>
		<rect x="-364.8" y="289.2" fill="#B4BBC5" width="4.4" height="4.4"/>
		<rect x="-358.9" y="289.2" fill="#B4BBC5" width="4.4" height="4.4"/>
	</g>
	<rect x="-376.6" y="265.6" fill="#B4BBC5" width="4.4" height="4.4"/>
	<rect x="-370.8" y="265.6" fill="#B4BBC5" width="4.4" height="4.4"/>
	<rect x="-364.8" y="265.6" fill="#B4BBC5" width="4.4" height="4.4"/>
	<rect x="-359" y="265.6" fill="#B4BBC5" width="4.4" height="4.4"/>
	<rect x="-350.1" y="265.6" fill="#B4BBC5" width="4.4" height="4.4"/>
	<rect x="-344.1" y="265.6" fill="#B4BBC5" width="4.4" height="4.4"/>
	<rect x="-338.3" y="265.6" fill="#B4BBC5" width="4.4" height="4.4"/>
	<rect x="-350.9" y="289.2" fill="#B4BBC5" width="4.4" height="4.4"/>
	<rect x="-344.9" y="289.2" fill="#B4BBC5" width="4.4" height="4.4"/>
	<rect x="-344.9" y="283.7" fill="#B4BBC5" width="4.4" height="4.4"/>
	<rect x="-339.1" y="289.2" fill="#B4BBC5" width="4.4" height="4.4"/>
	<rect x="-330.4" y="289.2" fill="#B4BBC5" width="4.4" height="4.4"/>
	<rect x="-324.4" y="289.2" fill="#B4BBC5" width="4.4" height="4.4"/>
	<rect x="-318.6" y="289.2" fill="#B4BBC5" width="4.4" height="4.4"/>
	<rect x="-330.4" y="283.7" fill="#B4BBC5" width="4.4" height="4.4"/>
	<rect x="-324.4" y="283.7" fill="#B4BBC5" width="4.4" height="4.4"/>
	<rect x="-318.6" y="283.7" fill="#B4BBC5" width="4.4" height="4.4"/>
	<rect x="-330.4" y="277.9" fill="#B4BBC5" width="4.4" height="4.4"/>
	<rect x="-324.4" y="277.9" fill="#B4BBC5" width="4.4" height="4.4"/>
	<rect x="-318.6" y="277.9" fill="#B4BBC5" width="4.4" height="4.4"/>
	<rect x="-330.4" y="272.3" fill="#B4BBC5" width="4.4" height="4.4"/>
	<rect x="-324.4" y="272.3" fill="#B4BBC5" width="4.4" height="4.4"/>
	<rect x="-318.6" y="272.3" fill="#B4BBC5" width="4.4" height="4.4"/>
	<rect x="-330.7" y="265.6" fill="#B4BBC5" width="4.4" height="4.4"/>
	<rect x="-324.4" y="265.6" fill="#B4BBC5" width="4.4" height="4.4"/>
	<rect x="-318.6" y="265.6" fill="#B4BBC5" width="4.4" height="4.4"/>
</g>
</svg>
