<?xml version="1.0" encoding="utf-8"?>
<!-- Generator: Adobe Illustrator 21.1.0, SVG Export Plug-In . SVG Version: 6.00 Build 0)  -->
<svg version="1.1" id="Layer_1" xmlns="http://www.w3.org/2000/svg" xmlns:xlink="http://www.w3.org/1999/xlink" x="0px" y="0px"
	 viewBox="0 0 24 24" style="enable-background:new 0 0 24 24;" xml:space="preserve">
<style type="text/css">
	.Black{fill:#727272;}
</style>
<path class="Black" d="M12,5C9.8,5,8,6.8,8,9s1.8,4,4,4s4-1.8,4-4S14.2,5,12,5z M12,12c-1.7,0-3-1.3-3-3s1.3-3,3-3s3,1.3,3,3
	S13.7,12,12,12z"/>
<path class="Black" d="M5,18v1h14v-1c0-2.2-1.8-4-4-4H9C6.8,14,5,15.8,5,18z M18,18H6l0,0c0-1.7,1.3-3,3-3h6C16.7,15,18,16.3,18,18
	L18,18z"/>
</svg>
