<?xml version="1.0" encoding="utf-8"?>
<!-- Generator: Adobe Illustrator 21.1.0, SVG Export Plug-In . SVG Version: 6.00 Build 0)  -->
<svg version="1.1" id="Layer_1" xmlns="http://www.w3.org/2000/svg" xmlns:xlink="http://www.w3.org/1999/xlink" x="0px" y="0px"
	 viewBox="0 0 24 24" style="enable-background:new 0 0 24 24;" xml:space="preserve">
<style type="text/css">
	.Black{fill:#727272;}
</style>
<path class="Black" d="M20,7h-8.1l-0.8-1.4C10.9,5.2,10.6,5,10.2,5H5H4C3.4,5,3,5.4,3,6v12c0,0.6,0.4,1,1,1h16c0.6,0,1-0.4,1-1V8
	C21,7.4,20.6,7,20,7z M20,18H4v-7h16V18z M20,10H4V6h1h5l0.7,1.3L11,8h9V10z"/>
</svg>
