<?xml version="1.0" encoding="utf-8"?>
<svg width="32" height="32" viewBox="0 0 32 32" fill="none" xmlns="http://www.w3.org/2000/svg">
	<style type="text/css">
		.Red{fill:#BB89CC;}
		.Yellow{fill:#DFC48F;}
		.Blue{fill:#71B5F4;}
		.Green{fill:#86BA73;}
		.Black{fill:#727272;}
		.White{fill:#FFFFFF;}
		.st0{opacity:0.5;}
		.st1{opacity:0.75;}
		.st2{opacity:0.35;}
		.st3{opacity:0.65;}
	</style>
	<path class="Yellow" fill-rule="evenodd" clip-rule="evenodd" d="M10.1926 0.292893C9.80211 -0.0976312 9.16894 -0.0976309 8.77842 0.292893L0.293137 8.77817C-0.0973869 9.1687 -0.0973869 9.80186 0.293137 10.1924L4.53578 14.435C4.9263 14.8256 5.55947 14.8256 5.94999 14.435L10.385 10H12V23C12 23.5523 12.4477 24 13 24H21.0712L19.7072 25.3641C19.3167 25.7546 19.3167 26.3877 19.7072 26.7783L22.5356 29.6067C22.9262 29.9972 23.5593 29.9972 23.9498 29.6067L29.6067 23.9498C29.9972 23.5593 29.9972 22.9262 29.6067 22.5356L26.7783 19.7072C26.3877 19.3167 25.7546 19.3167 25.3641 19.7072L24 21.0713V14.5565L27.6067 10.9498C27.9972 10.5593 27.9972 9.92615 27.6067 9.53563L24.7783 6.7072C24.3877 6.31668 23.7546 6.31668 23.3641 6.7072L22.0713 8H12.385L14.4353 5.94975C14.8258 5.55922 14.8258 4.92606 14.4353 4.53553L10.1926 0.292893ZM14 22L22 22V16.5565L21.9498 16.6067C21.5593 16.9972 20.9262 16.9972 20.5356 16.6067L17.7072 13.7783C17.3167 13.3877 17.3167 12.7546 17.7072 12.3641L20.0713 10H14L14 22Z"/>
</svg>

