<?xml version="1.0" encoding="utf-8"?>
<svg width="32" height="32" viewBox="0 0 32 32" fill="none" xmlns="http://www.w3.org/2000/svg">
	<style type="text/css">
		.Red{fill:#BB89CC;}
		.Yellow{fill:#DFC48F;}
		.Blue{fill:#71B5F4;}
		.Green{fill:#86BA73;}
		.Black{fill:#CBCBCB;}
		.White{fill:#FFFFFF;}
		.st0{opacity:0.5;}
		.st1{opacity:0.75;}
		.st2{opacity:0.35;}
		.st3{opacity:0.65;}
	</style>
	<path class="Black" d="M18.8621 8.08125C17.4657 9.47761 17.4657 11.7416 18.8621 13.1379C20.2584 14.5343 22.5224 14.5343 23.9187 13.1379L29.1339 7.92276C29.6906 9.16796 30.0001 10.5478 30.0001 12C30.0001 17.5228 25.523 22 20.0001 22C18.2672 22 16.6372 21.5592 15.2162 20.7836L6.83142 29.1661C5.72725 30.2703 3.93686 30.2699 2.83322 29.1652C1.73002 28.0609 1.73083 26.2714 2.83501 25.1681L11.221 16.7922C10.4426 15.3692 10.0001 13.7363 10.0001 12C10.0001 6.47715 14.4773 2 20.0001 2C21.4522 2 22.832 2.3095 24.0772 2.86614L18.8621 8.08125Z"/>
</svg>
