<?xml version="1.0" encoding="utf-8"?>
<!-- Generator: Adobe Illustrator 23.0.1, SVG Export Plug-In . SVG Version: 6.00 Build 0)  -->
<svg version="1.1" id="Layer_1" xmlns="http://www.w3.org/2000/svg" xmlns:xlink="http://www.w3.org/1999/xlink" x="0px" y="0px"
	 viewBox="0 0 32 32" style="enable-background:new 0 0 32 32;" xml:space="preserve">
<style type="text/css">
	.Yellow{fill:#FF7200;}
</style>
<g>
	<path class="Yellow" d="M27.8,15.3l4.2-1.7l-1.3-4.3l-4.4,0.8c-0.7-1.2-1.5-2.2-2.5-3.1l1.7-4.2l-3.6-2l-2.6,3.7
		c-1.3-0.4-2.6-0.5-4-0.5L13.6,0L9.3,1.3l0.8,4.4C9,6.4,7.9,7.2,7.1,8.2L2.9,6.5l-2,3.6l3.7,2.6c-0.4,1.3-0.5,2.6-0.5,4L0,18.4
		l1.3,4.3l4.4-0.8c0.7,1.2,1.5,2.2,2.5,3.1l-1.7,4.2l3.6,2l2.6-3.7c1.3,0.4,2.6,0.5,4,0.5l1.7,4.2l4.3-1.3l-0.8-4.4
		c1.2-0.7,2.2-1.5,3.1-2.5l4.2,1.7l2-3.6l-3.7-2.6C27.7,18,27.9,16.7,27.8,15.3z M24.4,16c0,4.7-3.8,8.4-8.4,8.4S7.6,20.7,7.6,16
		s3.8-8.4,8.4-8.4S24.4,11.3,24.4,16z"/>
</g>
</svg>
