<?xml version="1.0" encoding="utf-8"?>
<!-- Generator: Adobe Illustrator 23.0.1, SVG Export Plug-In . SVG Version: 6.00 Build 0)  -->
<svg version="1.1" id="Layer_1" xmlns="http://www.w3.org/2000/svg" xmlns:xlink="http://www.w3.org/1999/xlink" x="0px" y="0px"
	 viewBox="0 0 32 32" style="enable-background:new 0 0 32 32;" xml:space="preserve">
<style type="text/css">
	.Black{fill:#737374;}
	.Red{fill:#D02027;}
	.Blue{fill:#3575BB;}
	.Yellow{fill:#FCB01B;}
	.White{fill:#FFFFFF;}
	.Green{fill:#159C49;}
	.st0{opacity:0.75;}
	.st1{opacity:0.5;}
</style>
<path class="Black" d="M2,6v12h28V6H2z M11.9,15.9c-0.7,0.1-1.5,0.2-2.3,0.2c-0.4,0-0.9,0-1.3-0.1C6.1,15.5,6,13.9,6,13V11
	c0-0.9,0.1-2.5,2.2-3C8.6,7.9,9,7.9,9.5,7.9c0.9,0,1.6,0.1,2.3,0.2v0.4v1.9h-1.5v-1c-0.3,0-0.6,0-0.8,0c-1.2,0-1.7,0.5-1.7,1.9V13
	c0,1.3,0.6,1.7,1.8,1.7c0.7,0,1.7,0,2.3-0.2V15.9z M15.2,16.1c-0.4,0-1.6-0.1-2.5-0.4v-2.1h1.5v1c0.5,0.1,0.8,0.1,1,0.1
	c0.9,0,1.4-0.2,1.4-0.8c0-0.5-0.2-0.7-0.6-0.9l-1.5-0.7c-1.1-0.6-1.7-1.1-1.7-2.3c0-1.8,1.1-2.2,3.1-2.2c0.4,0,1.3,0.1,2.2,0.3v2
	h-1.5V9.3c-0.3-0.1-0.6-0.1-0.7-0.1c-0.8,0-1.3,0.2-1.3,0.8c0,0.4,0.3,0.6,0.9,0.9l1.4,0.7c1,0.5,1.5,1.1,1.5,2.3
	C18.4,15.7,17.2,16.1,15.2,16.1z M26.7,9.3h-0.7L23.6,16H22l-2.4-6.7h-0.7V8h3.3v1.3h-0.8l1.4,4.3l1.4-4.3h-0.8V8h3.3V9.3z"/>
<path class="Black" d="M4,6V3c0-0.5,0.5-1,1-1h22c0.5,0,1,0.5,1,1v3h-2V4H6v2H4z M26,18v10H6V18H4v11c0,0.5,0.5,1,1,1h22
	c0.5,0,1-0.5,1-1V18H26z"/>
</svg>
